<svg version="1.1" viewBox="0.0 0.0 960.0 540.0" fill="none" stroke="none" stroke-linecap="square" stroke-miterlimit="10" xmlns:xlink="http://www.w3.org/1999/xlink" xmlns="http://www.w3.org/2000/svg">
    <clipPath id="gb90d945931_0_113.0">
        <path d="m0 0l960.0 0l0 540.0l-960.0 0l0 -540.0z" clip-rule="nonzero" />
    </clipPath>
    <g clip-path="url(#gb90d945931_0_113.0)">
        <path fill="#eeeeee" d="m422.24408 119.75459l426.48822 0l0 300.50397l-426.48822 0z" fill-rule="evenodd" />
        <path fill="#000000" fill-opacity="0.0" d="m111.25984 119.74147l737.48035 0l0 300.5039l-737.48035 0z" fill-rule="evenodd" />
        <path stroke="#000000" stroke-width="2.0" stroke-linejoin="round" stroke-linecap="butt" d="m111.25984 119.74147l737.48035 0l0 300.5039l-737.48035 0z" fill-rule="evenodd" />
        <path fill="#000000" fill-opacity="0.0" d="m123.7769 182.4895l262.74017 0l0 213.92126l-262.74017 0z" fill-rule="evenodd" />
        <path stroke="#000000" stroke-width="2.0" stroke-linejoin="round" stroke-linecap="butt" d="m123.7769 182.4895l262.74017 0l0 213.92126l-262.74017 0z" fill-rule="evenodd" />
        <path fill="#cfe2f3" d="m135.43309 229.73885l238.04726 0l0 31.59056l-238.04726 0z" fill-rule="evenodd" />
        <path stroke="#000000" stroke-width="2.0" stroke-linejoin="round" stroke-linecap="butt" d="m135.43309 229.73885l238.04726 0l0 31.59056l-238.04726 0z" fill-rule="evenodd" />
        <path fill="#000000" fill-opacity="0.0" d="m213.07611 229.96982l0 31.46457" fill-rule="evenodd" />
        <path stroke="#000000" stroke-width="2.0" stroke-linejoin="round" stroke-linecap="butt" d="m213.07611 229.96982l0 31.46457" fill-rule="evenodd" />
        <path fill="#000000" fill-opacity="0.0" d="m291.70078 229.80183l0 31.464584" fill-rule="evenodd" />
        <path stroke="#000000" stroke-width="2.0" stroke-linejoin="round" stroke-linecap="butt" d="m291.70078 229.80183l0 31.464584" fill-rule="evenodd" />
        <path fill="#000000" fill-opacity="0.0" d="m294.3071 234.20079l79.18109 0l0 22.771652l-79.18109 0z" fill-rule="evenodd" />
        <path fill="#000000" d="m306.41418 256.87598q-1.203125 -2.2031097 -1.765625 -4.5156097q-0.546875 -2.3125 -0.546875 -4.703125q0 -2.390625 0.546875 -4.6875q0.5625 -2.3125 1.765625 -4.53125q0.203125 -0.359375 0.578125 -0.359375q0.375 -0.015625 0.609375 0.28125q0.25 0.28125 0.046875 0.8125q-0.859375 2.125 -1.28125 4.21875q-0.421875 2.09375 -0.421875 4.265625q0 2.171875 0.4375 4.265625q0.4375 2.09375 1.265625 4.2187347q0.203125 0.53125 -0.046875 0.8125q-0.234375 0.296875 -0.609375 0.28125q-0.375 -0.015625 -0.578125 -0.359375zm11.198547 -3.4531097q-0.875 0 -0.875 -0.90625l0 -2.46875l-6.125 0q-0.421875 0 -0.671875 -0.203125q-0.25 -0.203125 -0.25 -0.59375q0 -0.375 0.5 -1.109375l6.5 -9.46875q0.375 -0.59375 0.984375 -0.59375q0.34375 0 0.578125 0.234375q0.25 0.21875 0.25 0.65625l0 9.578125l1.5625 0q0.828125 0 0.828125 0.75q0 0.75 -0.828125 0.75l-1.5625 0l0 2.46875q0 0.90625 -0.890625 0.90625zm-0.875 -4.875l0 -7.5l-5.140625 7.5l5.140625 0zm7.500061 4.71875q-0.484375 0 -0.703125 -0.21875q-0.21875 -0.234375 -0.21875 -0.609375q0 -0.453125 0.453125 -0.921875l4.78125 -5.125q1.078125 -1.171875 1.5625 -2.15625q0.484375 -1.0 0.484375 -2.015625q0 -2.625 -3.046875 -2.625q-1.90625 0 -3.453125 1.21875q-0.34375 0.25 -0.625 0.1875q-0.28125 -0.078125 -0.421875 -0.328125q-0.140625 -0.265625 -0.109375 -0.578125q0.046875 -0.3125 0.359375 -0.546875q0.828125 -0.671875 2.0 -1.09375q1.171875 -0.421875 2.390625 -0.421875q2.265625 0 3.46875 1.0625q1.203125 1.0625 1.203125 3.0q0 1.34375 -0.65625 2.640625q-0.640625 1.28125 -2.03125 2.734375l-4.046875 4.296875l6.6875 0q0.8125 0 0.8125 0.734375q0 0.765625 -0.8125 0.765625l-8.078125 0zm12.6875305 2.03125q-0.296875 0.359375 -0.59375 0.328125q-0.296875 -0.03125 -0.40625 -0.3125q-0.109375 -0.28125 0.171875 -0.65625q0.25 -0.328125 0.375 -0.671875q0.140625 -0.328125 0.203125 -0.640625q-0.515625 -0.03125 -0.8125 -0.34375q-0.296875 -0.328125 -0.296875 -0.828125q0 -0.5 0.296875 -0.828125q0.3125 -0.34375 0.828125 -0.34375q0.5625 0 0.875 0.375q0.328125 0.375 0.328125 1.078125q0 0.65625 -0.21875 1.40625q-0.21875 0.75 -0.75 1.4375zm21.02716 1.5781097q-0.203125 0.34375 -0.59375 0.359375q-0.375 0.015625 -0.625 -0.28125q-0.25 -0.28125 -0.03125 -0.8125q1.703125 -4.2031097 1.703125 -8.48436q0 -2.171875 -0.453125 -4.25q-0.4375 -2.078125 -1.25 -4.234375q-0.1875 -0.53125 0.046875 -0.8125q0.25 -0.296875 0.625 -0.28125q0.375 0 0.578125 0.359375q1.171875 2.203125 1.71875 4.515625q0.5625 2.3125 0.5625 4.703125q0 2.390625 -0.5625 4.71875q-0.546875 2.3125 -1.71875 4.4999847z" fill-rule="nonzero" />
        <path fill="#cfe2f3" d="m135.43309 348.8622l238.04726 0l0 31.590546l-238.04726 0z" fill-rule="evenodd" />
        <path stroke="#000000" stroke-width="2.0" stroke-linejoin="round" stroke-linecap="butt" d="m135.43309 348.8622l238.04726 0l0 31.590546l-238.04726 0z" fill-rule="evenodd" />
        <path fill="#000000" fill-opacity="0.0" d="m213.07611 349.09317l0 31.46457" fill-rule="evenodd" />
        <path stroke="#000000" stroke-width="2.0" stroke-linejoin="round" stroke-linecap="butt" d="m213.07611 349.09317l0 31.46457" fill-rule="evenodd" />
        <path fill="#000000" fill-opacity="0.0" d="m291.70078 348.9252l0 31.46457" fill-rule="evenodd" />
        <path stroke="#000000" stroke-width="2.0" stroke-linejoin="round" stroke-linecap="butt" d="m291.70078 348.9252l0 31.46457" fill-rule="evenodd" />
        <path fill="#000000" fill-opacity="0.0" d="m290.74277 352.22314l79.18112 0l0 22.771667l-79.18112 0z" fill-rule="evenodd" />
        <path fill="#000000" d="m302.84988 374.89835q-1.203125 -2.203125 -1.765625 -4.515625q-0.546875 -2.3125 -0.546875 -4.703125q0 -2.390625 0.546875 -4.6875q0.5625 -2.3125 1.765625 -4.53125q0.203125 -0.359375 0.578125 -0.359375q0.375 -0.015625 0.609375 0.28125q0.25 0.28125 0.046875 0.8125q-0.859375 2.125 -1.28125 4.21875q-0.421875 2.09375 -0.421875 4.265625q0 2.171875 0.4375 4.265625q0.4375 2.09375 1.265625 4.21875q0.203125 0.53125 -0.046875 0.8125q-0.234375 0.296875 -0.609375 0.28125q-0.375 -0.015625 -0.578125 -0.359375zm7.6360474 -3.421875q-0.984375 0 -2.03125 -0.375q-1.03125 -0.390625 -1.8125 -1.109375q-0.28125 -0.21875 -0.3125 -0.53125q-0.03125 -0.3125 0.109375 -0.546875q0.15625 -0.25 0.421875 -0.3125q0.265625 -0.078125 0.609375 0.15625q0.734375 0.609375 1.5 0.890625q0.765625 0.28125 1.546875 0.28125q2.09375 0 3.203125 -1.5625q1.125 -1.5625 1.125 -4.625l0 -1.046875q-0.390625 1.40625 -1.5 2.203125q-1.09375 0.78125 -2.59375 0.78125q-1.3125 0 -2.34375 -0.609375q-1.015625 -0.609375 -1.59375 -1.671875q-0.578125 -1.0625 -0.578125 -2.453125q0 -1.421875 0.609375 -2.515625q0.609375 -1.109375 1.6875 -1.734375q1.078125 -0.640625 2.484375 -0.640625q2.65625 0 4.09375 1.9375q1.453125 1.921875 1.453125 5.40625q0 3.90625 -1.609375 6.0q-1.59375 2.078125 -4.46875 2.078125zm0.640625 -7.265625q1.421875 0 2.3125 -0.921875q0.90625 -0.9375 0.90625 -2.421875q0 -1.484375 -0.90625 -2.40625q-0.890625 -0.921875 -2.3125 -0.921875q-1.421875 0 -2.3125 0.921875q-0.890625 0.921875 -0.890625 2.40625q0 1.484375 0.890625 2.421875q0.890625 0.921875 2.3125 0.921875zm9.546936 7.078125q-0.484375 0 -0.703125 -0.21875q-0.21875 -0.234375 -0.21875 -0.609375q0 -0.453125 0.453125 -0.921875l4.78125 -5.125q1.078125 -1.171875 1.5625 -2.15625q0.484375 -1.0 0.484375 -2.015625q0 -2.625 -3.046875 -2.625q-1.90625 0 -3.453125 1.21875q-0.34375 0.25 -0.625 0.1875q-0.28125 -0.078125 -0.421875 -0.328125q-0.140625 -0.265625 -0.109375 -0.578125q0.046875 -0.3125 0.359375 -0.546875q0.828125 -0.671875 2.0 -1.09375q1.171875 -0.421875 2.390625 -0.421875q2.265625 0 3.46875 1.0625q1.203125 1.0625 1.203125 3.0q0 1.34375 -0.65625 2.640625q-0.640625 1.28125 -2.03125 2.734375l-4.046875 4.296875l6.6875 0q0.8125 0 0.8125 0.734375q0 0.765625 -0.8125 0.765625l-8.078125 0zm12.6875305 2.03125q-0.296875 0.359375 -0.59375 0.328125q-0.296875 -0.03125 -0.40625 -0.3125q-0.109375 -0.28125 0.171875 -0.65625q0.25 -0.328125 0.375 -0.671875q0.140625 -0.328125 0.203125 -0.640625q-0.515625 -0.03125 -0.8125 -0.34375q-0.296875 -0.328125 -0.296875 -0.828125q0 -0.5 0.296875 -0.828125q0.3125 -0.34375 0.828125 -0.34375q0.5625 0 0.875 0.375q0.328125 0.375 0.328125 1.078125q0 0.65625 -0.21875 1.40625q-0.21875 0.75 -0.75 1.4375zm21.02716 1.578125q-0.203125 0.34375 -0.59375 0.359375q-0.375 0.015625 -0.625 -0.28125q-0.25 -0.28125 -0.03125 -0.8125q1.703125 -4.203125 1.703125 -8.484375q0 -2.171875 -0.453125 -4.25q-0.4375 -2.078125 -1.25 -4.234375q-0.1875 -0.53125 0.046875 -0.8125q0.25 -0.296875 0.625 -0.28125q0.375 0 0.578125 0.359375q1.171875 2.203125 1.71875 4.515625q0.5625 2.3125 0.5625 4.703125q0 2.390625 -0.5625 4.71875q-0.546875 2.3125 -1.71875 4.5z" fill-rule="nonzero" />
        <path fill="#000000" fill-opacity="0.0" d="m187.10423 278.89825l128.09447 0l0 74.33072l-128.09447 0z" fill-rule="evenodd" />
        <path fill="#000000" d="m251.19768 331.60574q-1.1406403 0 -1.8281403 -0.703125q-0.671875 -0.703125 -0.671875 -1.796875q0 -1.09375 0.671875 -1.796875q0.6875 -0.703125 1.8281403 -0.703125q1.125 0 1.78125 0.703125q0.65625 0.703125 0.65625 1.796875q0 1.09375 -0.65625 1.796875q-0.65625 0.703125 -1.78125 0.703125zm10.39061 0q-1.140625 0 -1.828125 -0.703125q-0.671875 -0.703125 -0.671875 -1.796875q0 -1.09375 0.671875 -1.796875q0.6875 -0.703125 1.828125 -0.703125q1.125 0 1.78125 0.703125q0.65625 0.703125 0.65625 1.796875q0 1.09375 -0.65625 1.796875q-0.65625 0.703125 -1.78125 0.703125zm-20.765625 0q-1.140625 0 -1.828125 -0.703125q-0.671875 -0.703125 -0.671875 -1.796875q0 -1.09375 0.671875 -1.796875q0.6875 -0.703125 1.828125 -0.703125q1.125 0 1.78125 0.703125q0.65625 0.703125 0.65625 1.796875q0 1.09375 -0.65625 1.796875q-0.65625 0.703125 -1.78125 0.703125z" fill-rule="nonzero" />
        <path fill="#000000" d="m349.72003 293.11316l0 0c0 -2.1221619 1.7203369 -3.8425293 3.8424988 -3.8425293l0 0c1.019104 0 1.99646 0.4048462 2.7170715 1.1254578c0.7206116 0.7206116 1.1254578 1.6979675 1.1254578 2.7170715l0 0c0 2.1221619 -1.7203369 3.8425293 -3.8425293 3.8425293l0 0c-2.1221619 0 -3.8424988 -1.7203674 -3.8424988 -3.8425293z" fill-rule="evenodd" />
        <path stroke="#000000" stroke-width="1.0" stroke-linejoin="round" stroke-linecap="butt" d="m349.72003 293.11316l0 0c0 -2.1221619 1.7203369 -3.8425293 3.8424988 -3.8425293l0 0c1.019104 0 1.99646 0.4048462 2.7170715 1.1254578c0.7206116 0.7206116 1.1254578 1.6979675 1.1254578 2.7170715l0 0c0 2.1221619 -1.7203369 3.8425293 -3.8425293 3.8425293l0 0c-2.1221619 0 -3.8424988 -1.7203674 -3.8424988 -3.8425293z" fill-rule="evenodd" />
        <path fill="#000000" d="m307.5153 293.11316l0 0c0 -2.1221619 1.7203674 -3.8425293 3.8425293 -3.8425293l0 0c1.019104 0 1.99646 0.4048462 2.7170715 1.1254578c0.7206116 0.7206116 1.1254578 1.6979675 1.1254578 2.7170715l0 0c0 2.1221619 -1.7203674 3.8425293 -3.8425293 3.8425293l0 0c-2.1221619 0 -3.8425293 -1.7203674 -3.8425293 -3.8425293z" fill-rule="evenodd" />
        <path stroke="#000000" stroke-width="1.0" stroke-linejoin="round" stroke-linecap="butt" d="m307.5153 293.11316l0 0c0 -2.1221619 1.7203674 -3.8425293 3.8425293 -3.8425293l0 0c1.019104 0 1.99646 0.4048462 2.7170715 1.1254578c0.7206116 0.7206116 1.1254578 1.6979675 1.1254578 2.7170715l0 0c0 2.1221619 -1.7203674 3.8425293 -3.8425293 3.8425293l0 0c-2.1221619 0 -3.8425293 -1.7203674 -3.8425293 -3.8425293z" fill-rule="evenodd" />
        <path fill="#000000" d="m340.8854 364.709l0 0c0 -2.1221619 1.7203369 -3.8425293 3.8425293 -3.8425293l0 0c1.0190735 0 1.99646 0.4048462 2.7170715 1.1254578c0.7206116 0.7206116 1.1254272 1.6979675 1.1254272 2.7170715l0 0c0 2.1221619 -1.7203369 3.8425293 -3.8424988 3.8425293l0 0c-2.1221924 0 -3.8425293 -1.7203674 -3.8425293 -3.8425293z" fill-rule="evenodd" />
        <path stroke="#000000" stroke-width="1.0" stroke-linejoin="round" stroke-linecap="butt" d="m340.8854 364.709l0 0c0 -2.1221619 1.7203369 -3.8425293 3.8425293 -3.8425293l0 0c1.0190735 0 1.99646 0.4048462 2.7170715 1.1254578c0.7206116 0.7206116 1.1254272 1.6979675 1.1254272 2.7170715l0 0c0 2.1221619 -1.7203369 3.8425293 -3.8424988 3.8425293l0 0c-2.1221924 0 -3.8425293 -1.7203674 -3.8425293 -3.8425293z" fill-rule="evenodd" />
        <path fill="#fff2cc" d="m452.7731 188.26317l64.2117 0l0 49.350082l-64.2117 0z" fill-rule="evenodd" />
        <path stroke="#000000" stroke-width="2.0" stroke-linejoin="round" stroke-linecap="butt" d="m452.7731 188.26317l64.2117 0l0 49.350082l-64.2117 0z" fill-rule="evenodd" />
        <path fill="#000000" d="m461.52557 220.27882q-0.703125 0 -1.0 -0.71875l-5.5 -12.578125q-0.21875 -0.5 0.015625 -0.78125q0.234375 -0.296875 0.65625 -0.296875q0.359375 0 0.546875 0.171875q0.1875 0.15625 0.328125 0.484375l4.96875 11.5l4.9375 -11.515625q0.140625 -0.328125 0.34375 -0.484375q0.203125 -0.15625 0.5625 -0.15625q0.421875 0 0.609375 0.3125q0.203125 0.296875 0 0.765625l-5.5 12.578125q-0.15625 0.359375 -0.375 0.546875q-0.21875 0.171875 -0.59375 0.171875zm9.436218 0q-0.828125 0 -0.828125 -0.859375l0 -12.546875q0 -0.828125 0.84375 -0.828125l4.734375 0q2.28125 0 3.484375 1.09375q1.21875 1.09375 1.21875 3.140625q0 2.015625 -1.21875 3.125q-1.203125 1.109375 -3.484375 1.109375l-3.9375 0l0 4.90625q0 0.859375 -0.8125 0.859375zm0.8125 -7.140625l3.75 0q3.28125 0 3.28125 -2.859375q0 -2.875 -3.28125 -2.875l-3.75 0l0 5.734375zm13.383118 7.1875q-1.0 0 -1.796875 -0.390625q-0.78125 -0.390625 -1.25 -1.0625q-0.453125 -0.6875 -0.453125 -1.53125q0 -1.0625 0.546875 -1.671875q0.5625 -0.625 1.828125 -0.890625q1.265625 -0.28125 3.46875 -0.28125l0.640625 0l0 -0.625q0 -1.234375 -0.515625 -1.78125q-0.5 -0.546875 -1.625 -0.546875q-0.703125 0 -1.421875 0.1875q-0.703125 0.171875 -1.453125 0.5625q-0.34375 0.1875 -0.578125 0.078125q-0.234375 -0.109375 -0.328125 -0.359375q-0.078125 -0.25 0 -0.515625q0.09375 -0.28125 0.40625 -0.421875q0.859375 -0.4375 1.71875 -0.640625q0.875 -0.203125 1.65625 -0.203125q1.875 0 2.78125 0.921875q0.921875 0.921875 0.921875 2.859375l0 5.421875q0 0.84375 -0.75 0.84375q-0.78125 0 -0.78125 -0.84375l0 -0.984375q-0.375 0.875 -1.171875 1.375q-0.78125 0.5 -1.84375 0.5zm0.265625 -1.234375q1.203125 0 1.953125 -0.828125q0.765625 -0.828125 0.765625 -2.109375l0 -0.59375l-0.625 0q-1.625 0 -2.5625 0.15625q-0.921875 0.140625 -1.296875 0.515625q-0.359375 0.359375 -0.359375 1.0q0 0.828125 0.5625 1.34375q0.578125 0.515625 1.5625 0.515625zm11.568756 4.828125q-1.046875 0 -2.0625 -0.25q-1.015625 -0.25 -1.828125 -0.796875q-0.296875 -0.171875 -0.359375 -0.421875q-0.046875 -0.25 0.078125 -0.484375q0.125 -0.234375 0.34375 -0.328125q0.234375 -0.09375 0.5 0.046875q0.875 0.53125 1.671875 0.734375q0.796875 0.203125 1.578125 0.203125q2.890625 0 2.890625 -2.96875l0 -1.71875q-0.421875 0.921875 -1.3125 1.453125q-0.890625 0.53125 -2.03125 0.53125q-1.34375 0 -2.328125 -0.609375q-0.96875 -0.625 -1.5 -1.71875q-0.53125 -1.09375 -0.53125 -2.53125q0 -1.4375 0.53125 -2.53125q0.53125 -1.09375 1.5 -1.6875q0.984375 -0.609375 2.328125 -0.609375q1.140625 0 2.015625 0.5q0.890625 0.5 1.296875 1.40625l0 -1.046875q0 -0.8125 0.8125 -0.8125q0.796875 0 0.796875 0.8125l0 8.34375q0 2.25 -1.109375 3.359375q-1.109375 1.125 -3.28125 1.125zm-0.234375 -5.328125q1.40625 0 2.21875 -0.953125q0.828125 -0.953125 0.828125 -2.578125q0 -1.625 -0.828125 -2.5625q-0.8125 -0.953125 -2.21875 -0.953125q-1.375 0 -2.203125 0.953125q-0.8125 0.9375 -0.8125 2.5625q0 1.625 0.8125 2.578125q0.828125 0.953125 2.203125 0.953125zm12.048096 1.734375q-2.3125 0 -3.65625 -1.34375q-1.328125 -1.359375 -1.328125 -3.6875q0 -1.5 0.59375 -2.640625q0.609375 -1.15625 1.65625 -1.78125q1.046875 -0.640625 2.421875 -0.640625q1.984375 0 3.09375 1.28125q1.1250305 1.265625 1.1250305 3.484375q0 0.625 -0.6875 0.625l-6.6250305 0q0.078125 1.65625 0.953125 2.53125q0.890625 0.859375 2.453125 0.859375q0.65625 0 1.328125 -0.15625q0.6875 -0.171875 1.328125 -0.625q0.453125 -0.296875 0.7656555 -0.109375q0.3125 0.171875 0.3125 0.546875q0.015625 0.375 -0.40625 0.65625q-0.6562805 0.46875 -1.5625305 0.734375q-0.90625 0.265625 -1.765625 0.265625zm-0.265625 -8.890625q-1.375 0 -2.1875 0.859375q-0.796875 0.859375 -0.9375 2.265625l5.90625 0q-0.0625 -1.484375 -0.78125 -2.296875q-0.703125 -0.828125 -2.0 -0.828125z" fill-rule="nonzero" />
        <path fill="#fff2cc" d="m516.5117 188.20064l64.71161 0l0 49.350082l-64.71161 0z" fill-rule="evenodd" />
        <path stroke="#000000" stroke-width="2.0" stroke-linejoin="round" stroke-linecap="butt" d="m516.5117 188.20064l64.71161 0l0 49.350082l-64.71161 0z" fill-rule="evenodd" />
        <path fill="#000000" d="m525.51416 220.21631q-0.703125 0 -1.0 -0.71875l-5.5 -12.578125q-0.21875 -0.5 0.015625 -0.78125q0.234375 -0.296875 0.65625 -0.296875q0.359375 0 0.546875 0.171875q0.1875 0.15625 0.328125 0.484375l4.96875 11.5l4.9375 -11.515625q0.140625 -0.328125 0.34375 -0.484375q0.203125 -0.15625 0.5625 -0.15625q0.421875 0 0.609375 0.3125q0.203125 0.296875 0 0.765625l-5.5 12.578125q-0.15625 0.359375 -0.375 0.546875q-0.21875 0.171875 -0.59375 0.171875zm9.436218 0q-0.828125 0 -0.828125 -0.859375l0 -12.546875q0 -0.828125 0.84375 -0.828125l4.734375 0q2.28125 0 3.484375 1.09375q1.21875 1.09375 1.21875 3.140625q0 2.015625 -1.21875 3.125q-1.203125 1.109375 -3.484375 1.109375l-3.9375 0l0 4.90625q0 0.859375 -0.8125 0.859375zm0.8125 -7.140625l3.75 0q3.28125 0 3.28125 -2.859375q0 -2.875 -3.28125 -2.875l-3.75 0l0 5.734375zm13.383118 7.1875q-1.0 0 -1.796875 -0.390625q-0.78125 -0.390625 -1.25 -1.0625q-0.453125 -0.6875 -0.453125 -1.53125q0 -1.0625 0.546875 -1.671875q0.5625 -0.625 1.828125 -0.890625q1.265625 -0.28125 3.46875 -0.28125l0.640625 0l0 -0.625q0 -1.234375 -0.515625 -1.78125q-0.5 -0.546875 -1.625 -0.546875q-0.703125 0 -1.421875 0.1875q-0.703125 0.171875 -1.453125 0.5625q-0.34375 0.1875 -0.578125 0.078125q-0.234375 -0.109375 -0.328125 -0.359375q-0.078125 -0.25 0 -0.515625q0.09375 -0.28125 0.40625 -0.421875q0.859375 -0.4375 1.71875 -0.640625q0.875 -0.203125 1.65625 -0.203125q1.875 0 2.78125 0.921875q0.921875 0.921875 0.921875 2.859375l0 5.421875q0 0.84375 -0.75 0.84375q-0.78125 0 -0.78125 -0.84375l0 -0.984375q-0.375 0.875 -1.171875 1.375q-0.78125 0.5 -1.84375 0.5zm0.265625 -1.234375q1.203125 0 1.953125 -0.828125q0.765625 -0.828125 0.765625 -2.109375l0 -0.59375l-0.625 0q-1.625 0 -2.5625 0.15625q-0.921875 0.140625 -1.296875 0.515625q-0.359375 0.359375 -0.359375 1.0q0 0.828125 0.5625 1.34375q0.578125 0.515625 1.5625 0.515625zm11.568726 4.828125q-1.046875 0 -2.0625 -0.25q-1.015625 -0.25 -1.828125 -0.796875q-0.296875 -0.171875 -0.359375 -0.421875q-0.046875 -0.25 0.078125 -0.484375q0.125 -0.234375 0.34375 -0.328125q0.234375 -0.09375 0.5 0.046875q0.875 0.53125 1.671875 0.734375q0.796875 0.203125 1.578125 0.203125q2.890625 0 2.890625 -2.96875l0 -1.71875q-0.421875 0.921875 -1.3125 1.453125q-0.890625 0.53125 -2.03125 0.53125q-1.34375 0 -2.328125 -0.609375q-0.96875 -0.625 -1.5 -1.71875q-0.53125 -1.09375 -0.53125 -2.53125q0 -1.4375 0.53125 -2.53125q0.53125 -1.09375 1.5 -1.6875q0.984375 -0.609375 2.328125 -0.609375q1.140625 0 2.015625 0.5q0.890625 0.5 1.296875 1.40625l0 -1.046875q0 -0.8125 0.8125 -0.8125q0.796875 0 0.796875 0.8125l0 8.34375q0 2.25 -1.109375 3.359375q-1.109375 1.125 -3.28125 1.125zm-0.234375 -5.328125q1.40625 0 2.21875 -0.953125q0.828125 -0.953125 0.828125 -2.578125q0 -1.625 -0.828125 -2.5625q-0.8125 -0.953125 -2.21875 -0.953125q-1.375 0 -2.203125 0.953125q-0.8125 0.9375 -0.8125 2.5625q0 1.625 0.8125 2.578125q0.828125 0.953125 2.203125 0.953125zm12.048157 1.734375q-2.3125 0 -3.65625 -1.34375q-1.328125 -1.359375 -1.328125 -3.6875q0 -1.5 0.59375 -2.640625q0.609375 -1.15625 1.65625 -1.78125q1.046875 -0.640625 2.421875 -0.640625q1.984375 0 3.09375 1.28125q1.125 1.265625 1.125 3.484375q0 0.625 -0.6875 0.625l-6.625 0q0.078125 1.65625 0.953125 2.53125q0.890625 0.859375 2.453125 0.859375q0.65625 0 1.328125 -0.15625q0.6875 -0.171875 1.328125 -0.625q0.453125 -0.296875 0.765625 -0.109375q0.3125 0.171875 0.3125 0.546875q0.015625 0.375 -0.40625 0.65625q-0.65625 0.46875 -1.5625 0.734375q-0.90625 0.265625 -1.765625 0.265625zm-0.265625 -8.890625q-1.375 0 -2.1875 0.859375q-0.796875 0.859375 -0.9375 2.265625l5.90625 0q-0.0625 -1.484375 -0.78125 -2.296875q-0.703125 -0.828125 -2.0 -0.828125z" fill-rule="nonzero" />
        <path fill="#fff2cc" d="m581.4335 188.201l63.739563 0l0 49.350082l-63.739563 0z" fill-rule="evenodd" />
        <path stroke="#000000" stroke-width="2.0" stroke-linejoin="round" stroke-linecap="butt" d="m581.4335 188.201l63.739563 0l0 49.350082l-63.739563 0z" fill-rule="evenodd" />
        <path fill="#000000" d="m589.9499 220.21667q-0.703125 0 -1.0 -0.71875l-5.5 -12.578125q-0.21875 -0.5 0.015625 -0.78125q0.234375 -0.296875 0.65625 -0.296875q0.359375 0 0.546875 0.171875q0.1875 0.15625 0.328125 0.484375l4.96875 11.5l4.9375 -11.515625q0.140625 -0.328125 0.34375 -0.484375q0.203125 -0.15625 0.5625 -0.15625q0.421875 0 0.609375 0.3125q0.203125 0.296875 0 0.765625l-5.5 12.578125q-0.15625 0.359375 -0.375 0.546875q-0.21875 0.171875 -0.59375 0.171875zm9.436218 0q-0.828125 0 -0.828125 -0.859375l0 -12.546875q0 -0.828125 0.84375 -0.828125l4.734375 0q2.28125 0 3.484375 1.09375q1.21875 1.09375 1.21875 3.140625q0 2.015625 -1.21875 3.125q-1.203125 1.109375 -3.484375 1.109375l-3.9375 0l0 4.90625q0 0.859375 -0.8125 0.859375zm0.8125 -7.140625l3.75 0q3.28125 0 3.28125 -2.859375q0 -2.875 -3.28125 -2.875l-3.75 0l0 5.734375zm13.383118 7.1875q-1.0 0 -1.796875 -0.390625q-0.78125 -0.390625 -1.25 -1.0625q-0.453125 -0.6875 -0.453125 -1.53125q0 -1.0625 0.546875 -1.671875q0.5625 -0.625 1.828125 -0.890625q1.265625 -0.28125 3.46875 -0.28125l0.640625 0l0 -0.625q0 -1.234375 -0.515625 -1.78125q-0.5 -0.546875 -1.625 -0.546875q-0.703125 0 -1.421875 0.1875q-0.703125 0.171875 -1.453125 0.5625q-0.34375 0.1875 -0.578125 0.078125q-0.234375 -0.109375 -0.328125 -0.359375q-0.078125 -0.25 0 -0.515625q0.09375 -0.28125 0.40625 -0.421875q0.859375 -0.4375 1.71875 -0.640625q0.875 -0.203125 1.65625 -0.203125q1.875 0 2.78125 0.921875q0.921875 0.921875 0.921875 2.859375l0 5.421875q0 0.84375 -0.75 0.84375q-0.78125 0 -0.78125 -0.84375l0 -0.984375q-0.375 0.875 -1.171875 1.375q-0.78125 0.5 -1.84375 0.5zm0.265625 -1.234375q1.203125 0 1.953125 -0.828125q0.765625 -0.828125 0.765625 -2.109375l0 -0.59375l-0.625 0q-1.625 0 -2.5625 0.15625q-0.921875 0.140625 -1.296875 0.515625q-0.359375 0.359375 -0.359375 1.0q0 0.828125 0.5625 1.34375q0.578125 0.515625 1.5625 0.515625zm11.568726 4.828125q-1.046875 0 -2.0625 -0.25q-1.015625 -0.25 -1.828125 -0.796875q-0.296875 -0.171875 -0.359375 -0.421875q-0.046875 -0.25 0.078125 -0.484375q0.125 -0.234375 0.34375 -0.328125q0.234375 -0.09375 0.5 0.046875q0.875 0.53125 1.671875 0.734375q0.796875 0.203125 1.578125 0.203125q2.890625 0 2.890625 -2.96875l0 -1.71875q-0.421875 0.921875 -1.3125 1.453125q-0.890625 0.53125 -2.03125 0.53125q-1.34375 0 -2.328125 -0.609375q-0.96875 -0.625 -1.5 -1.71875q-0.53125 -1.09375 -0.53125 -2.53125q0 -1.4375 0.53125 -2.53125q0.53125 -1.09375 1.5 -1.6875q0.984375 -0.609375 2.328125 -0.609375q1.140625 0 2.015625 0.5q0.890625 0.5 1.296875 1.40625l0 -1.046875q0 -0.8125 0.8125 -0.8125q0.796875 0 0.796875 0.8125l0 8.34375q0 2.25 -1.109375 3.359375q-1.109375 1.125 -3.28125 1.125zm-0.234375 -5.328125q1.40625 0 2.21875 -0.953125q0.828125 -0.953125 0.828125 -2.578125q0 -1.625 -0.828125 -2.5625q-0.8125 -0.953125 -2.21875 -0.953125q-1.375 0 -2.203125 0.953125q-0.8125 0.9375 -0.8125 2.5625q0 1.625 0.8125 2.578125q0.828125 0.953125 2.203125 0.953125zm12.048157 1.734375q-2.3125 0 -3.65625 -1.34375q-1.328125 -1.359375 -1.328125 -3.6875q0 -1.5 0.59375 -2.640625q0.609375 -1.15625 1.65625 -1.78125q1.046875 -0.640625 2.421875 -0.640625q1.984375 0 3.09375 1.28125q1.125 1.265625 1.125 3.484375q0 0.625 -0.6875 0.625l-6.625 0q0.078125 1.65625 0.953125 2.53125q0.890625 0.859375 2.453125 0.859375q0.65625 0 1.328125 -0.15625q0.6875 -0.171875 1.328125 -0.625q0.453125 -0.296875 0.765625 -0.109375q0.3125 0.171875 0.3125 0.546875q0.015625 0.375 -0.40625 0.65625q-0.65625 0.46875 -1.5625 0.734375q-0.90625 0.265625 -1.765625 0.265625zm-0.265625 -8.890625q-1.375 0 -2.1875 0.859375q-0.796875 0.859375 -0.9375 2.265625l5.90625 0q-0.0625 -1.484375 -0.78125 -2.296875q-0.703125 -0.828125 -2.0 -0.828125z" fill-rule="nonzero" />
        <path fill="#fff2cc" d="m645.5387 188.201l63.739563 0l0 49.350082l-63.739563 0z" fill-rule="evenodd" />
        <path stroke="#000000" stroke-width="2.0" stroke-linejoin="round" stroke-linecap="butt" d="m645.5387 188.201l63.739563 0l0 49.350082l-63.739563 0z" fill-rule="evenodd" />
        <path fill="#000000" d="m654.0551 220.21667q-0.703125 0 -1.0 -0.71875l-5.5 -12.578125q-0.21875 -0.5 0.015625 -0.78125q0.234375 -0.296875 0.65625 -0.296875q0.359375 0 0.546875 0.171875q0.1875 0.15625 0.328125 0.484375l4.96875 11.5l4.9375 -11.515625q0.140625 -0.328125 0.34375 -0.484375q0.203125 -0.15625 0.5625 -0.15625q0.421875 0 0.609375 0.3125q0.203125 0.296875 0 0.765625l-5.5 12.578125q-0.15625 0.359375 -0.375 0.546875q-0.21875 0.171875 -0.59375 0.171875zm9.436218 0q-0.828125 0 -0.828125 -0.859375l0 -12.546875q0 -0.828125 0.84375 -0.828125l4.734375 0q2.28125 0 3.484375 1.09375q1.21875 1.09375 1.21875 3.140625q0 2.015625 -1.21875 3.125q-1.203125 1.109375 -3.484375 1.109375l-3.9375 0l0 4.90625q0 0.859375 -0.8125 0.859375zm0.8125 -7.140625l3.75 0q3.28125 0 3.28125 -2.859375q0 -2.875 -3.28125 -2.875l-3.75 0l0 5.734375zm13.383118 7.1875q-1.0 0 -1.796875 -0.390625q-0.78125 -0.390625 -1.25 -1.0625q-0.453125 -0.6875 -0.453125 -1.53125q0 -1.0625 0.546875 -1.671875q0.5625 -0.625 1.828125 -0.890625q1.265625 -0.28125 3.46875 -0.28125l0.640625 0l0 -0.625q0 -1.234375 -0.515625 -1.78125q-0.5 -0.546875 -1.625 -0.546875q-0.703125 0 -1.421875 0.1875q-0.703125 0.171875 -1.453125 0.5625q-0.34375 0.1875 -0.578125 0.078125q-0.234375 -0.109375 -0.328125 -0.359375q-0.078125 -0.25 0 -0.515625q0.09375 -0.28125 0.40625 -0.421875q0.859375 -0.4375 1.71875 -0.640625q0.875 -0.203125 1.65625 -0.203125q1.875 0 2.78125 0.921875q0.921875 0.921875 0.921875 2.859375l0 5.421875q0 0.84375 -0.75 0.84375q-0.78125 0 -0.78125 -0.84375l0 -0.984375q-0.375 0.875 -1.171875 1.375q-0.78125 0.5 -1.84375 0.5zm0.265625 -1.234375q1.203125 0 1.953125 -0.828125q0.765625 -0.828125 0.765625 -2.109375l0 -0.59375l-0.625 0q-1.625 0 -2.5625 0.15625q-0.921875 0.140625 -1.296875 0.515625q-0.359375 0.359375 -0.359375 1.0q0 0.828125 0.5625 1.34375q0.578125 0.515625 1.5625 0.515625zm11.568787 4.828125q-1.046875 0 -2.0625 -0.25q-1.015625 -0.25 -1.828125 -0.796875q-0.296875 -0.171875 -0.359375 -0.421875q-0.046875 -0.25 0.078125 -0.484375q0.125 -0.234375 0.34375 -0.328125q0.234375 -0.09375 0.5 0.046875q0.875 0.53125 1.671875 0.734375q0.796875 0.203125 1.578125 0.203125q2.890625 0 2.890625 -2.96875l0 -1.71875q-0.421875 0.921875 -1.3125 1.453125q-0.890625 0.53125 -2.03125 0.53125q-1.34375 0 -2.328125 -0.609375q-0.96875 -0.625 -1.5 -1.71875q-0.53125 -1.09375 -0.53125 -2.53125q0 -1.4375 0.53125 -2.53125q0.53125 -1.09375 1.5 -1.6875q0.984375 -0.609375 2.328125 -0.609375q1.140625 0 2.015625 0.5q0.890625 0.5 1.296875 1.40625l0 -1.046875q0 -0.8125 0.8125 -0.8125q0.796875 0 0.796875 0.8125l0 8.34375q0 2.25 -1.109375 3.359375q-1.109375 1.125 -3.28125 1.125zm-0.234375 -5.328125q1.40625 0 2.21875 -0.953125q0.828125 -0.953125 0.828125 -2.578125q0 -1.625 -0.828125 -2.5625q-0.8125 -0.953125 -2.21875 -0.953125q-1.375 0 -2.203125 0.953125q-0.8125 0.9375 -0.8125 2.5625q0 1.625 0.8125 2.578125q0.828125 0.953125 2.203125 0.953125zm12.048096 1.734375q-2.3125 0 -3.65625 -1.34375q-1.328125 -1.359375 -1.328125 -3.6875q0 -1.5 0.59375 -2.640625q0.609375 -1.15625 1.65625 -1.78125q1.046875 -0.640625 2.421875 -0.640625q1.984375 0 3.09375 1.28125q1.125 1.265625 1.125 3.484375q0 0.625 -0.6875 0.625l-6.625 0q0.078125 1.65625 0.953125 2.53125q0.890625 0.859375 2.453125 0.859375q0.65625 0 1.328125 -0.15625q0.6875 -0.171875 1.328125 -0.625q0.453125 -0.296875 0.765625 -0.109375q0.3125 0.171875 0.3125 0.546875q0.015625 0.375 -0.40625 0.65625q-0.65625 0.46875 -1.5625 0.734375q-0.90625 0.265625 -1.765625 0.265625zm-0.265625 -8.890625q-1.375 0 -2.1875 0.859375q-0.796875 0.859375 -0.9375 2.265625l5.90625 0q-0.0625 -1.484375 -0.78125 -2.296875q-0.703125 -0.828125 -2.0 -0.828125z" fill-rule="nonzero" />
        <path fill="#fff2cc" d="m709.27826 188.201l64.40613 0l0 49.350082l-64.40613 0z" fill-rule="evenodd" />
        <path stroke="#000000" stroke-width="2.0" stroke-linejoin="round" stroke-linecap="butt" d="m709.27826 188.201l64.40613 0l0 49.350082l-64.40613 0z" fill-rule="evenodd" />
        <path fill="#000000" d="m718.1279 220.21667q-0.703125 0 -1.0 -0.71875l-5.5 -12.578125q-0.21875 -0.5 0.015625 -0.78125q0.234375 -0.296875 0.65625 -0.296875q0.359375 0 0.546875 0.171875q0.1875 0.15625 0.328125 0.484375l4.96875 11.5l4.9375 -11.515625q0.140625 -0.328125 0.34375 -0.484375q0.203125 -0.15625 0.5625 -0.15625q0.421875 0 0.609375 0.3125q0.203125 0.296875 0 0.765625l-5.5 12.578125q-0.15625 0.359375 -0.375 0.546875q-0.21875 0.171875 -0.59375 0.171875zm9.436279 0q-0.828125 0 -0.828125 -0.859375l0 -12.546875q0 -0.828125 0.84375 -0.828125l4.734375 0q2.28125 0 3.484375 1.09375q1.21875 1.09375 1.21875 3.140625q0 2.015625 -1.21875 3.125q-1.203125 1.109375 -3.484375 1.109375l-3.9375 0l0 4.90625q0 0.859375 -0.8125 0.859375zm0.8125 -7.140625l3.75 0q3.28125 0 3.28125 -2.859375q0 -2.875 -3.28125 -2.875l-3.75 0l0 5.734375zm13.383118 7.1875q-1.0 0 -1.796875 -0.390625q-0.78125 -0.390625 -1.25 -1.0625q-0.453125 -0.6875 -0.453125 -1.53125q0 -1.0625 0.546875 -1.671875q0.5625 -0.625 1.828125 -0.890625q1.265625 -0.28125 3.46875 -0.28125l0.640625 0l0 -0.625q0 -1.234375 -0.515625 -1.78125q-0.5 -0.546875 -1.625 -0.546875q-0.703125 0 -1.421875 0.1875q-0.703125 0.171875 -1.453125 0.5625q-0.34375 0.1875 -0.578125 0.078125q-0.234375 -0.109375 -0.328125 -0.359375q-0.078125 -0.25 0 -0.515625q0.09375 -0.28125 0.40625 -0.421875q0.859375 -0.4375 1.71875 -0.640625q0.875 -0.203125 1.65625 -0.203125q1.875 0 2.78125 0.921875q0.921875 0.921875 0.921875 2.859375l0 5.421875q0 0.84375 -0.75 0.84375q-0.78125 0 -0.78125 -0.84375l0 -0.984375q-0.375 0.875 -1.171875 1.375q-0.78125 0.5 -1.84375 0.5zm0.265625 -1.234375q1.203125 0 1.953125 -0.828125q0.765625 -0.828125 0.765625 -2.109375l0 -0.59375l-0.625 0q-1.625 0 -2.5625 0.15625q-0.921875 0.140625 -1.296875 0.515625q-0.359375 0.359375 -0.359375 1.0q0 0.828125 0.5625 1.34375q0.578125 0.515625 1.5625 0.515625zm11.568726 4.828125q-1.046875 0 -2.0625 -0.25q-1.015625 -0.25 -1.828125 -0.796875q-0.296875 -0.171875 -0.359375 -0.421875q-0.046875 -0.25 0.078125 -0.484375q0.125 -0.234375 0.34375 -0.328125q0.234375 -0.09375 0.5 0.046875q0.875 0.53125 1.671875 0.734375q0.796875 0.203125 1.578125 0.203125q2.890625 0 2.890625 -2.96875l0 -1.71875q-0.421875 0.921875 -1.3125 1.453125q-0.890625 0.53125 -2.03125 0.53125q-1.34375 0 -2.328125 -0.609375q-0.96875 -0.625 -1.5 -1.71875q-0.53125 -1.09375 -0.53125 -2.53125q0 -1.4375 0.53125 -2.53125q0.53125 -1.09375 1.5 -1.6875q0.984375 -0.609375 2.328125 -0.609375q1.140625 0 2.015625 0.5q0.890625 0.5 1.296875 1.40625l0 -1.046875q0 -0.8125 0.8125 -0.8125q0.796875 0 0.796875 0.8125l0 8.34375q0 2.25 -1.109375 3.359375q-1.109375 1.125 -3.28125 1.125zm-0.234375 -5.328125q1.40625 0 2.21875 -0.953125q0.828125 -0.953125 0.828125 -2.578125q0 -1.625 -0.828125 -2.5625q-0.8125 -0.953125 -2.21875 -0.953125q-1.375 0 -2.203125 0.953125q-0.8125 0.9375 -0.8125 2.5625q0 1.625 0.8125 2.578125q0.828125 0.953125 2.203125 0.953125zm12.048096 1.734375q-2.3125 0 -3.65625 -1.34375q-1.328125 -1.359375 -1.328125 -3.6875q0 -1.5 0.59375 -2.640625q0.609375 -1.15625 1.65625 -1.78125q1.046875 -0.640625 2.421875 -0.640625q1.984375 0 3.09375 1.28125q1.125 1.265625 1.125 3.484375q0 0.625 -0.6875 0.625l-6.625 0q0.078125 1.65625 0.953125 2.53125q0.890625 0.859375 2.453125 0.859375q0.65625 0 1.328125 -0.15625q0.6875 -0.171875 1.328125 -0.625q0.453125 -0.296875 0.765625 -0.109375q0.3125 0.171875 0.3125 0.546875q0.015625 0.375 -0.40625 0.65625q-0.65625 0.46875 -1.5625 0.734375q-0.90625 0.265625 -1.765625 0.265625zm-0.265625 -8.890625q-1.375 0 -2.1875 0.859375q-0.796875 0.859375 -0.9375 2.265625l5.90625 0q-0.0625 -1.484375 -0.78125 -2.296875q-0.703125 -0.828125 -2.0 -0.828125z" fill-rule="nonzero" />
        <path fill="#fff2cc" d="m773.88983 188.29077l63.739563 0l0 49.350098l-63.739563 0z" fill-rule="evenodd" />
        <path stroke="#000000" stroke-width="2.0" stroke-linejoin="round" stroke-linecap="butt" d="m773.88983 188.29077l63.739563 0l0 49.350098l-63.739563 0z" fill-rule="evenodd" />
        <path fill="#000000" d="m782.4062 220.30644q-0.703125 0 -1.0 -0.71875l-5.5 -12.578125q-0.21875 -0.5 0.015625 -0.78125q0.234375 -0.296875 0.65625 -0.296875q0.359375 0 0.546875 0.171875q0.1875 0.15625 0.328125 0.484375l4.96875 11.5l4.9375 -11.515625q0.140625 -0.328125 0.34375 -0.484375q0.203125 -0.15625 0.5625 -0.15625q0.421875 0 0.609375 0.3125q0.203125 0.296875 0 0.765625l-5.5 12.578125q-0.15625 0.359375 -0.375 0.546875q-0.21875 0.171875 -0.59375 0.171875zm9.436279 0q-0.828125 0 -0.828125 -0.859375l0 -12.546875q0 -0.828125 0.84375 -0.828125l4.734375 0q2.28125 0 3.484375 1.09375q1.21875 1.09375 1.21875 3.140625q0 2.015625 -1.21875 3.125q-1.203125 1.109375 -3.484375 1.109375l-3.9375 0l0 4.90625q0 0.859375 -0.8125 0.859375zm0.8125 -7.140625l3.75 0q3.28125 0 3.28125 -2.859375q0 -2.875 -3.28125 -2.875l-3.75 0l0 5.734375zm13.383118 7.1875q-1.0 0 -1.796875 -0.390625q-0.78125 -0.390625 -1.25 -1.0625q-0.453125 -0.6875 -0.453125 -1.53125q0 -1.0625 0.546875 -1.671875q0.5625 -0.625 1.828125 -0.890625q1.265625 -0.28125 3.46875 -0.28125l0.640625 0l0 -0.625q0 -1.234375 -0.515625 -1.78125q-0.5 -0.546875 -1.625 -0.546875q-0.703125 0 -1.421875 0.1875q-0.703125 0.171875 -1.453125 0.5625q-0.34375 0.1875 -0.578125 0.078125q-0.234375 -0.109375 -0.328125 -0.359375q-0.078125 -0.25 0 -0.515625q0.09375 -0.28125 0.40625 -0.421875q0.859375 -0.4375 1.71875 -0.640625q0.875 -0.203125 1.65625 -0.203125q1.875 0 2.78125 0.921875q0.921875 0.921875 0.921875 2.859375l0 5.421875q0 0.84375 -0.75 0.84375q-0.78125 0 -0.78125 -0.84375l0 -0.984375q-0.375 0.875 -1.171875 1.375q-0.78125 0.5 -1.84375 0.5zm0.265625 -1.234375q1.203125 0 1.953125 -0.828125q0.765625 -0.828125 0.765625 -2.109375l0 -0.59375l-0.625 0q-1.625 0 -2.5625 0.15625q-0.921875 0.140625 -1.296875 0.515625q-0.359375 0.359375 -0.359375 1.0q0 0.828125 0.5625 1.34375q0.578125 0.515625 1.5625 0.515625zm11.568726 4.828125q-1.046875 0 -2.0625 -0.25q-1.015625 -0.25 -1.828125 -0.796875q-0.296875 -0.171875 -0.359375 -0.421875q-0.046875 -0.25 0.078125 -0.484375q0.125 -0.234375 0.34375 -0.328125q0.234375 -0.09375 0.5 0.046875q0.875 0.53125 1.671875 0.734375q0.796875 0.203125 1.578125 0.203125q2.890625 0 2.890625 -2.96875l0 -1.71875q-0.421875 0.921875 -1.3125 1.453125q-0.890625 0.53125 -2.03125 0.53125q-1.34375 0 -2.328125 -0.609375q-0.96875 -0.625 -1.5 -1.71875q-0.53125 -1.09375 -0.53125 -2.53125q0 -1.4375 0.53125 -2.53125q0.53125 -1.09375 1.5 -1.6875q0.984375 -0.609375 2.328125 -0.609375q1.140625 0 2.015625 0.5q0.890625 0.5 1.296875 1.40625l0 -1.046875q0 -0.8125 0.8125 -0.8125q0.796875 0 0.796875 0.8125l0 8.34375q0 2.25 -1.109375 3.359375q-1.109375 1.125 -3.28125 1.125zm-0.234375 -5.328125q1.40625 0 2.21875 -0.953125q0.828125 -0.953125 0.828125 -2.578125q0 -1.625 -0.828125 -2.5625q-0.8125 -0.953125 -2.21875 -0.953125q-1.375 0 -2.203125 0.953125q-0.8125 0.9375 -0.8125 2.5625q0 1.625 0.8125 2.578125q0.828125 0.953125 2.203125 0.953125zm12.048096 1.734375q-2.3125 0 -3.65625 -1.34375q-1.328125 -1.359375 -1.328125 -3.6875q0 -1.5 0.59375 -2.640625q0.609375 -1.15625 1.65625 -1.78125q1.046875 -0.640625 2.421875 -0.640625q1.984375 0 3.09375 1.28125q1.125 1.265625 1.125 3.484375q0 0.625 -0.6875 0.625l-6.625 0q0.078125 1.65625 0.953125 2.53125q0.890625 0.859375 2.453125 0.859375q0.65625 0 1.328125 -0.15625q0.6875 -0.171875 1.328125 -0.625q0.453125 -0.296875 0.765625 -0.109375q0.3125 0.171875 0.3125 0.546875q0.015625 0.375 -0.40625 0.65625q-0.65625 0.46875 -1.5625 0.734375q-0.90625 0.265625 -1.765625 0.265625zm-0.265625 -8.890625q-1.375 0 -2.1875 0.859375q-0.796875 0.859375 -0.9375 2.265625l5.90625 0q-0.0625 -1.484375 -0.78125 -2.296875q-0.703125 -0.828125 -2.0 -0.828125z" fill-rule="nonzero" />
        <path fill="#fff2cc" d="m452.7731 258.12323l64.2117 0l0 49.350067l-64.2117 0z" fill-rule="evenodd" />
        <path stroke="#000000" stroke-width="2.0" stroke-linejoin="round" stroke-linecap="butt" d="m452.7731 258.12323l64.2117 0l0 49.350067l-64.2117 0z" fill-rule="evenodd" />
        <path fill="#fff2cc" d="m516.5117 258.0607l64.71161 0l0 49.350067l-64.71161 0z" fill-rule="evenodd" />
        <path stroke="#000000" stroke-width="2.0" stroke-linejoin="round" stroke-linecap="butt" d="m516.5117 258.0607l64.71161 0l0 49.350067l-64.71161 0z" fill-rule="evenodd" />
        <path fill="#fff2cc" d="m581.4335 258.06107l63.739563 0l0 49.350098l-63.739563 0z" fill-rule="evenodd" />
        <path stroke="#000000" stroke-width="2.0" stroke-linejoin="round" stroke-linecap="butt" d="m581.4335 258.06107l63.739563 0l0 49.350098l-63.739563 0z" fill-rule="evenodd" />
        <path fill="#fff2cc" d="m645.5387 258.06107l63.739563 0l0 49.350098l-63.739563 0z" fill-rule="evenodd" />
        <path stroke="#000000" stroke-width="2.0" stroke-linejoin="round" stroke-linecap="butt" d="m645.5387 258.06107l63.739563 0l0 49.350098l-63.739563 0z" fill-rule="evenodd" />
        <path fill="#fff2cc" d="m709.27826 258.06107l64.40613 0l0 49.350098l-64.40613 0z" fill-rule="evenodd" />
        <path stroke="#000000" stroke-width="2.0" stroke-linejoin="round" stroke-linecap="butt" d="m709.27826 258.06107l64.40613 0l0 49.350098l-64.40613 0z" fill-rule="evenodd" />
        <path fill="#fff2cc" d="m773.88983 258.15085l63.739563 0l0 49.350067l-63.739563 0z" fill-rule="evenodd" />
        <path stroke="#000000" stroke-width="2.0" stroke-linejoin="round" stroke-linecap="butt" d="m773.88983 258.15085l63.739563 0l0 49.350067l-63.739563 0z" fill-rule="evenodd" />
        <path fill="#fff2cc" d="m452.7731 352.74417l64.2117 0l0 49.350098l-64.2117 0z" fill-rule="evenodd" />
        <path stroke="#000000" stroke-width="2.0" stroke-linejoin="round" stroke-linecap="butt" d="m452.7731 352.74417l64.2117 0l0 49.350098l-64.2117 0z" fill-rule="evenodd" />
        <path fill="#fff2cc" d="m516.5117 352.68164l64.71161 0l0 49.350098l-64.71161 0z" fill-rule="evenodd" />
        <path stroke="#000000" stroke-width="2.0" stroke-linejoin="round" stroke-linecap="butt" d="m516.5117 352.68164l64.71161 0l0 49.350098l-64.71161 0z" fill-rule="evenodd" />
        <path fill="#fff2cc" d="m581.4335 352.682l63.739563 0l0 49.350098l-63.739563 0z" fill-rule="evenodd" />
        <path stroke="#000000" stroke-width="2.0" stroke-linejoin="round" stroke-linecap="butt" d="m581.4335 352.682l63.739563 0l0 49.350098l-63.739563 0z" fill-rule="evenodd" />
        <path fill="#fff2cc" d="m645.5387 352.682l63.739563 0l0 49.350098l-63.739563 0z" fill-rule="evenodd" />
        <path stroke="#000000" stroke-width="2.0" stroke-linejoin="round" stroke-linecap="butt" d="m645.5387 352.682l63.739563 0l0 49.350098l-63.739563 0z" fill-rule="evenodd" />
        <path fill="#fff2cc" d="m709.27826 352.682l64.40613 0l0 49.350098l-64.40613 0z" fill-rule="evenodd" />
        <path stroke="#000000" stroke-width="2.0" stroke-linejoin="round" stroke-linecap="butt" d="m709.27826 352.682l64.40613 0l0 49.350098l-64.40613 0z" fill-rule="evenodd" />
        <path fill="#fff2cc" d="m773.88983 352.7718l63.739563 0l0 49.350098l-63.739563 0z" fill-rule="evenodd" />
        <path stroke="#000000" stroke-width="2.0" stroke-linejoin="round" stroke-linecap="butt" d="m773.88983 352.7718l63.739563 0l0 49.350098l-63.739563 0z" fill-rule="evenodd" />
        <path fill="#000000" fill-opacity="0.0" d="m452.7784 147.72835l384.85043 0l0 48.472443l-384.85043 0z" fill-rule="evenodd" />
        <path fill="#000000" d="m613.72955 181.25644q-0.875 0 -1.265625 -0.90625l-6.96875 -15.9375q-0.265625 -0.625 0.03125 -0.984375q0.296875 -0.375 0.84375 -0.375q0.453125 0 0.6875 0.21875q0.25 0.203125 0.421875 0.609375l6.28125 14.5625l6.25 -14.578125q0.1875 -0.40625 0.4375 -0.609375q0.25 -0.203125 0.703125 -0.203125q0.53125 0 0.78125 0.390625q0.265625 0.390625 0 0.96875l-6.953125 15.9375q-0.203125 0.453125 -0.484375 0.6875q-0.28125 0.21875 -0.765625 0.21875zm12.060486 -0.171875q-1.140625 0 -1.140625 -1.140625l0 -15.578125q0 -1.140625 1.140625 -1.140625l6.0 0q2.765625 0 4.265625 1.234375q1.515625 1.21875 1.515625 3.421875q0 1.46875 -0.765625 2.515625q-0.765625 1.03125 -2.09375 1.515625q1.53125 0.40625 2.40625 1.5q0.875 1.09375 0.875 2.765625q0 2.375 -1.546875 3.640625q-1.53125 1.265625 -4.34375 1.265625l-6.3125 0zm0.890625 -9.875l4.8125 0q4.015625 0 4.015625 -3.140625q0 -3.171875 -4.015625 -3.171875l-4.8125 0l0 6.3125zm0 8.203125l5.21875 0q4.046875 0 4.046875 -3.265625q0 -3.265625 -4.046875 -3.265625l-5.21875 0l0 6.53125zm18.559326 1.90625q-1.828125 0 -2.796875 -1.09375q-0.953125 -1.109375 -0.953125 -3.21875l0 -12.921875q0 -1.03125 1.015625 -1.03125q1.03125 0 1.03125 1.03125l0 12.765625q0 2.71875 2.15625 2.71875q0.234375 0 0.40625 -0.03125q0.1875 -0.03125 0.359375 -0.03125q0.28125 -0.015625 0.390625 0.140625q0.109375 0.140625 0.109375 0.609375q0 0.859375 -0.859375 0.984375q-0.203125 0.046875 -0.4375 0.0625q-0.21875 0.015625 -0.421875 0.015625zm8.745483 0q-1.796875 0 -3.125 -0.78125q-1.3125 -0.796875 -2.03125 -2.21875q-0.71875 -1.4375 -0.71875 -3.390625q0 -1.953125 0.71875 -3.375q0.71875 -1.4375 2.03125 -2.21875q1.328125 -0.78125 3.125 -0.78125q1.765625 0 3.09375 0.78125q1.328125 0.78125 2.046875 2.21875q0.734375 1.421875 0.734375 3.375q0 1.953125 -0.734375 3.390625q-0.71875 1.421875 -2.046875 2.21875q-1.328125 0.78125 -3.09375 0.78125zm0 -1.65625q1.71875 0 2.75 -1.21875q1.046875 -1.234375 1.046875 -3.515625q0 -2.296875 -1.046875 -3.515625q-1.03125 -1.21875 -2.75 -1.21875q-1.75 0 -2.78125 1.21875q-1.03125 1.21875 -1.03125 3.515625q0 2.28125 1.03125 3.515625q1.03125 1.21875 2.78125 1.21875zm14.1762085 1.65625q-1.84375 0 -3.1875 -0.796875q-1.34375 -0.8125 -2.0625 -2.265625q-0.71875 -1.453125 -0.71875 -3.40625q0 -2.9375 1.59375 -4.609375q1.59375 -1.6875 4.375 -1.6875q0.90625 0 1.890625 0.296875q1.0 0.28125 1.8125 0.9375q0.421875 0.296875 0.359375 0.765625q-0.0625 0.453125 -0.4375 0.6875q-0.359375 0.21875 -0.84375 -0.109375q-0.671875 -0.5 -1.34375 -0.703125q-0.671875 -0.203125 -1.3125 -0.203125q-1.921875 0 -2.96875 1.203125q-1.03125 1.203125 -1.03125 3.453125q0 2.203125 1.03125 3.484375q1.046875 1.28125 2.96875 1.28125q0.640625 0 1.3125 -0.203125q0.671875 -0.203125 1.34375 -0.71875q0.484375 -0.328125 0.84375 -0.078125q0.359375 0.234375 0.390625 0.6875q0.03125 0.453125 -0.359375 0.734375q-0.8125 0.65625 -1.78125 0.953125q-0.96875 0.296875 -1.875 0.296875zm7.5238037 -0.0625q-1.015625 0 -1.015625 -1.0625l0 -16.109375q0 -1.03125 1.015625 -1.03125q1.03125 0 1.03125 1.03125l0 10.15625l0.0625 0l5.1875 -4.953125q0.328125 -0.328125 0.609375 -0.5q0.28125 -0.1875 0.734375 -0.1875q0.609375 0 0.796875 0.46875q0.1875 0.46875 -0.265625 0.953125l-4.9375 4.6875l5.421875 5.078125q0.53125 0.515625 0.28125 1.0q-0.234375 0.46875 -0.796875 0.46875q-0.453125 0 -0.75 -0.1875q-0.28125 -0.1875 -0.65625 -0.5625l-5.625 -5.203125l-0.0625 0l0 4.890625q0 1.0625 -1.03125 1.0625z" fill-rule="nonzero" />
        <path fill="#000000" fill-opacity="0.0" d="m671.7004 382.2082l0 0c0 -3.9833984 2.658081 -7.2125854 5.9370117 -7.2125854l0 0c1.574585 0 3.0846558 0.7598877 4.198059 2.1125183c1.1134033 1.3526001 1.7389526 3.1871643 1.7389526 5.100067l0 0c0 3.9833984 -2.658142 7.2125854 -5.9370117 7.2125854l0 0c-3.2789307 0 -5.9370117 -3.229187 -5.9370117 -7.2125854z" fill-rule="evenodd" />
        <path fill="#000000" fill-opacity="0.0" d="m536.5684 289.44885l0 0c0 -6.2882385 5.316223 -11.385834 11.874023 -11.385834l0 0c3.149231 0 6.1694336 1.199585 8.39624 3.3348389c2.2268066 2.135254 3.4777832 5.0312805 3.4777832 8.050995l0 0c0 6.288208 -5.316162 11.385834 -11.874023 11.385834l0 0c-6.5578003 0 -11.874023 -5.0976257 -11.874023 -11.385834z" fill-rule="evenodd" />
        <path fill="#000000" fill-opacity="0.0" d="m348.57043 245.5856c95.7323 0 191.4646 17.905518 191.4646 35.811035" fill-rule="evenodd" />
        <path stroke="#000000" stroke-width="2.0" stroke-linejoin="round" stroke-linecap="butt" d="m348.57047 245.5856c47.86612 0 95.73227 4.4763794 131.63187 11.1909485c17.94983 3.3572998 32.90796 7.274109 43.378723 11.470734c2.6176758 1.0491333 4.954895 2.1157837 6.9882812 3.1955261c0.5083008 0.26992798 0.99768066 0.54071045 1.4676514 0.81222534l0.13354492 0.07797241" fill-rule="evenodd" />
        <path fill="#000000" stroke="#000000" stroke-width="2.0" stroke-linecap="butt" d="m529.6754 274.49802l8.44342 4.6902466l-3.453186 -9.020264z" fill-rule="evenodd" />
        <path fill="#000000" fill-opacity="0.0" d="m799.1616 282.77954l0 0c0 -6.288208 5.316162 -11.385803 11.874023 -11.385803l0 0c3.14917 0 6.1693726 1.1995544 8.396179 3.3348083c2.2268066 2.1352844 3.4778442 5.031311 3.4778442 8.050995l0 0c0 6.2882385 -5.316162 11.385834 -11.874023 11.385834l0 0c-6.5578613 0 -11.874023 -5.097595 -11.874023 -11.385834z" fill-rule="evenodd" />
        <path fill="#000000" fill-opacity="0.0" d="m603.4687 212.91998l0 0c0 -6.2882233 5.316223 -11.385834 11.874023 -11.385834l0 0c3.149231 0 6.1694336 1.1995697 8.39624 3.3348389c2.2268066 2.135254 3.4777832 5.0312805 3.4777832 8.050995l0 0c0 6.288208 -5.316162 11.3858185 -11.874023 11.3858185l0 0c-6.5578003 0 -11.874023 -5.0976105 -11.874023 -11.3858185z" fill-rule="evenodd" />
        <path fill="#000000" fill-opacity="0.0" d="m581.15564 284.2187l128.09448 0l0 74.33072l-128.09448 0z" fill-rule="evenodd" />
        <path fill="#000000" d="m645.2491 336.92618q-1.140625 0 -1.828125 -0.703125q-0.671875 -0.703125 -0.671875 -1.796875q0 -1.09375 0.671875 -1.796875q0.6875 -0.703125 1.828125 -0.703125q1.125 0 1.78125 0.703125q0.65625 0.703125 0.65625 1.796875q0 1.09375 -0.65625 1.796875q-0.65625 0.703125 -1.78125 0.703125zm10.390625 0q-1.140625 0 -1.828125 -0.703125q-0.671875 -0.703125 -0.671875 -1.796875q0 -1.09375 0.671875 -1.796875q0.6875 -0.703125 1.828125 -0.703125q1.125 0 1.78125 0.703125q0.65625 0.703125 0.65625 1.796875q0 1.09375 -0.65625 1.796875q-0.65625 0.703125 -1.78125 0.703125zm-20.765625 0q-1.140625 0 -1.828125 -0.703125q-0.671875 -0.703125 -0.671875 -1.796875q0 -1.09375 0.671875 -1.796875q0.6875 -0.703125 1.828125 -0.703125q1.125 0 1.78125 0.703125q0.65625 0.703125 0.65625 1.796875q0 1.09375 -0.65625 1.796875q-0.65625 0.703125 -1.78125 0.703125z" fill-rule="nonzero" />
        <path fill="#000000" fill-opacity="0.0" d="m294.30652 125.579056l125.921234 0l0 31.43306l-125.921234 0z" fill-rule="evenodd" />
        <path fill="#000000" d="m311.31998 153.2956q-2.265625 0 -2.265625 -2.265625l0 -18.96875q0 -2.265625 2.265625 -2.265625l6.46875 0q5.90625 0 9.109375 3.03125q3.21875 3.03125 3.21875 8.703125q0 5.640625 -3.21875 8.703125q-3.203125 3.0625 -9.109375 3.0625l-6.46875 0zm2.0 -3.53125l4.203125 0q8.125 0 8.125 -8.234375q0 -8.203125 -8.125 -8.203125l-4.203125 0l0 16.4375zm23.270996 3.796875q-2.140625 0 -2.140625 -2.203125l0 -19.390625q0 -2.171875 2.171875 -2.171875l8.03125 0q3.859375 0 5.953125 1.859375q2.109375 1.84375 2.109375 5.171875q0 2.640625 -1.375 4.359375q-1.359375 1.71875 -3.921875 2.3125q1.703125 0.53125 2.796875 2.5625l2.5 4.640625q0.5625 1.0625 0.21875 1.96875q-0.34375 0.890625 -1.71875 0.890625q-0.890625 0 -1.46875 -0.375q-0.5625 -0.390625 -1.0 -1.1875l-3.359375 -6.203125q-0.609375 -1.125 -1.421875 -1.515625q-0.8125 -0.390625 -2.078125 -0.390625l-3.171875 0l0 7.46875q0 2.203125 -2.125 2.203125zm2.125 -12.828125l5.203125 0q4.671875 0 4.671875 -3.796875q0 -3.765625 -4.671875 -3.765625l-5.203125 0l0 7.5625zm18.398468 12.828125q-1.15625 0 -1.65625 -0.796875q-0.5 -0.796875 0.03125 -1.9375l8.796875 -19.5q0.421875 -0.96875 1.03125 -1.375q0.625 -0.421875 1.4375 -0.421875q0.765625 0 1.375 0.421875q0.625 0.40625 1.046875 1.375l8.84375 19.5q0.53125 1.171875 0.0625 1.953125q-0.46875 0.78125 -1.609375 0.78125q-0.921875 0 -1.4375 -0.453125q-0.515625 -0.453125 -0.921875 -1.375l-1.671875 -3.875l-11.453125 0l-1.640625 3.875q-0.4375 0.96875 -0.90625 1.40625q-0.453125 0.421875 -1.328125 0.421875zm9.5625 -19.125l-4.234375 10.03125l8.53125 0l-4.21875 -10.03125l-0.078125 0zm16.999207 19.125q-1.921875 0 -1.921875 -2.0l0 -20.03125q0 -2.0 1.984375 -2.0q0.84375 0 1.328125 0.328125q0.484375 0.3125 0.875 1.078125l7.703125 14.234375l7.703125 -14.234375q0.390625 -0.765625 0.859375 -1.078125q0.46875 -0.328125 1.296875 -0.328125q1.9375 0 1.9375 2.0l0 20.03125q0 2.0 -1.9375 2.0q-1.921875 0 -1.921875 -2.0l0 -14.09375l-6.265625 11.421875q-0.34375 0.578125 -0.71875 0.84375q-0.359375 0.265625 -0.984375 0.265625q-0.640625 0 -1.046875 -0.28125q-0.390625 -0.28125 -0.6875 -0.828125l-6.265625 -11.359375l0 14.03125q0 2.0 -1.9375 2.0z" fill-rule="nonzero" />
        <path fill="#000000" fill-opacity="0.0" d="m426.04413 125.579056l125.921265 0l0 31.43306l-125.921265 0z" fill-rule="evenodd" />
        <path fill="#000000" d="m444.7323 153.56122q-2.140625 0 -2.140625 -2.203125l0 -19.390625q0 -2.171875 2.171875 -2.171875l8.03125 0q3.859375 0 5.953125 1.9375q2.109375 1.9375 2.109375 5.390625q0 3.46875 -2.109375 5.421875q-2.09375 1.953125 -5.953125 1.953125l-5.9375 0l0 6.859375q0 2.203125 -2.125 2.203125zm2.125 -12.4375l5.265625 0q4.609375 0 4.609375 -4.0q0 -3.953125 -4.609375 -3.953125l-5.265625 0l0 7.953125zm19.464264 12.4375q-1.921875 0 -1.921875 -2.0l0 -20.03125q0 -2.0 1.984375 -2.0q0.84375 0 1.328125 0.328125q0.484375 0.3125 0.875 1.078125l7.703125 14.234375l7.703125 -14.234375q0.390625 -0.765625 0.859375 -1.078125q0.46875 -0.328125 1.296875 -0.328125q1.9375 0 1.9375 2.0l0 20.03125q0 2.0 -1.9375 2.0q-1.921875 0 -1.921875 -2.0l0 -14.09375l-6.265625 11.421875q-0.34375 0.578125 -0.71875 0.84375q-0.359375 0.265625 -0.984375 0.265625q-0.640625 0 -1.046875 -0.28125q-0.390625 -0.28125 -0.6875 -0.828125l-6.265625 -11.359375l0 14.03125q0 2.0 -1.9375 2.0zm34.569366 0.0625q-2.765625 0 -4.765625 -1.03125q-2.0 -1.03125 -3.09375 -2.921875q-1.078125 -1.90625 -1.078125 -4.5q0 -2.546875 1.046875 -4.4375q1.046875 -1.90625 2.890625 -2.984375q1.859375 -1.078125 4.234375 -1.078125q3.453125 0 5.46875 2.203125q2.03125 2.1875 2.03125 5.984375q0 1.234375 -1.609375 1.234375l-10.0625 0q0.46875 4.375 5.0 4.375q0.859375 0 1.9375 -0.21875q1.09375 -0.21875 2.0625 -0.75q0.859375 -0.5 1.453125 -0.3125q0.609375 0.171875 0.859375 0.71875q0.25 0.53125 0.0625 1.1875q-0.171875 0.640625 -0.9375 1.109375q-1.171875 0.734375 -2.6875 1.078125q-1.515625 0.34375 -2.8125 0.34375zm-0.609375 -14.125q-1.828125 0 -2.96875 1.140625q-1.125 1.125 -1.359375 3.0625l8.203125 0q-0.140625 -2.03125 -1.125 -3.109375q-0.984375 -1.09375 -2.75 -1.09375zm12.766968 14.0625q-2.0625305 0 -2.0625305 -2.125l0 -12.609375q0 -2.09375 2.0312805 -2.09375q2.03125 0 2.03125 2.09375l0 0.671875q0.734375 -1.328125 2.03125 -2.078125q1.296875 -0.75 3.0 -0.75q3.671875 0 4.796875 3.1875q0.765625 -1.5 2.203125 -2.34375q1.4375 -0.84375 3.265625 -0.84375q5.5 0 5.5 6.6875l0 8.078125q0 2.125 -2.09375 2.125q-2.0625 0 -2.0625 -2.125l0 -7.90625q0 -1.859375 -0.625 -2.71875q-0.609375 -0.875 -2.078125 -0.875q-1.640625 0 -2.578125 1.15625q-0.921875 1.140625 -0.921875 3.171875l0 7.171875q0 2.125 -2.0625 2.125q-2.109375 0 -2.109375 -2.125l0 -7.90625q0 -1.859375 -0.625 -2.71875q-0.609375 -0.875 -2.046875 -0.875q-1.625 0 -2.5625 1.15625q-0.921875 1.140625 -0.921875 3.171875l0 7.171875q0 2.125 -2.109375 2.125z" fill-rule="nonzero" />
        <path fill="#000000" fill-opacity="0.0" d="m123.7769 145.41864l158.70866 0l0 37.07086l-158.70866 0z" fill-rule="evenodd" />
        <path stroke="#000000" stroke-width="2.0" stroke-linejoin="round" stroke-linecap="butt" d="m123.7769 145.41864l158.70866 0l0 37.07086l-158.70866 0z" fill-rule="evenodd" />
        <path fill="#000000" d="m142.48003 173.30844q-2.484375 0 -4.328125 -1.125q-1.828125 -1.140625 -2.828125 -3.1875q-1.0 -2.046875 -1.0 -4.859375q0 -2.8125 0.984375 -4.859375q0.984375 -2.0625 2.8125 -3.171875q1.84375 -1.109375 4.359375 -1.109375q2.53125 0 4.359375 1.109375q1.84375 1.109375 2.84375 3.15625q1.0 2.03125 1.0 4.84375q0 2.8125 -1.015625 4.875q-1.015625 2.0625 -2.859375 3.203125q-1.828125 1.125 -4.328125 1.125zm0 -1.859375q2.859375 0 4.421875 -1.921875q1.578125 -1.921875 1.578125 -5.390625q0 -3.46875 -1.578125 -5.375q-1.5625 -1.921875 -4.421875 -1.921875q-2.8125 0 -4.390625 1.921875q-1.5625 1.90625 -1.5625 5.375q0 3.4375 1.5625 5.375q1.578125 1.9375 4.390625 1.9375zm13.317322 1.796875q-1.015625 0 -1.015625 -1.0625l0 -9.828125l-1.609375 0q-0.890625 0 -0.890625 -0.8125q0 -0.78125 0.890625 -0.78125l1.609375 0l0 -0.421875q0 -4.734375 4.640625 -5.140625l0.734375 -0.078125q0.453125 -0.03125 0.65625 0.203125q0.203125 0.21875 0.21875 0.546875q0.015625 0.3125 -0.171875 0.5625q-0.171875 0.25 -0.5 0.28125l-0.578125 0.046875q-1.546875 0.125 -2.25 0.9375q-0.6875 0.8125 -0.6875 2.375l0 0.6875l2.734375 0q0.875 0 0.875 0.78125q0 0.8125 -0.875 0.8125l-2.734375 0l0 9.828125q0 1.0625 -1.046875 1.0625zm8.028946 0q-1.015625 0 -1.015625 -1.0625l0 -9.828125l-1.609375 0q-0.890625 0 -0.890625 -0.8125q0 -0.78125 0.890625 -0.78125l1.609375 0l0 -0.421875q0 -4.734375 4.640625 -5.140625l0.734375 -0.078125q0.453125 -0.03125 0.65625 0.203125q0.203125 0.21875 0.21875 0.546875q0.015625 0.3125 -0.171875 0.5625q-0.171875 0.25 -0.5 0.28125l-0.578125 0.046875q-1.546875 0.125 -2.25 0.9375q-0.6875 0.8125 -0.6875 2.375l0 0.6875l2.734375 0q0.875 0 0.875 0.78125q0 0.8125 -0.875 0.8125l-2.734375 0l0 9.828125q0 1.0625 -1.046875 1.0625zm10.791992 0.0625q-1.140625 0 -2.296875 -0.296875q-1.140625 -0.296875 -2.140625 -0.953125q-0.453125 -0.28125 -0.4375 -0.71875q0.015625 -0.4375 0.34375 -0.6875q0.328125 -0.265625 0.828125 -0.015625q1.0 0.609375 1.921875 0.859375q0.921875 0.234375 1.828125 0.234375q1.453125 0 2.1875 -0.53125q0.734375 -0.53125 0.734375 -1.4375q0 -0.71875 -0.484375 -1.125q-0.484375 -0.421875 -1.515625 -0.65625l-2.3125 -0.5q-3.140625 -0.6875 -3.140625 -3.25q0 -1.671875 1.328125 -2.671875q1.328125 -1.015625 3.484375 -1.015625q1.09375 0 2.09375 0.296875q1.015625 0.28125 1.828125 0.90625q0.4375 0.3125 0.375 0.75q-0.046875 0.421875 -0.390625 0.671875q-0.328125 0.234375 -0.8125 -0.078125q-0.765625 -0.5 -1.546875 -0.734375q-0.78125 -0.25 -1.546875 -0.25q-1.421875 0 -2.15625 0.5625q-0.734375 0.546875 -0.734375 1.46875q0 1.421875 1.875 1.8125l2.3125 0.484375q1.625 0.359375 2.453125 1.140625q0.84375 0.765625 0.84375 2.078125q0 1.703125 -1.34375 2.6875q-1.34375 0.96875 -3.578125 0.96875zm13.573471 0q-2.90625 0 -4.609375 -1.703125q-1.6875 -1.71875 -1.6875 -4.65625q0 -1.90625 0.75 -3.359375q0.765625 -1.453125 2.09375 -2.25q1.328125 -0.796875 3.078125 -0.796875q2.5 0 3.921875 1.609375q1.421875 1.59375 1.421875 4.40625q0 0.796875 -0.890625 0.796875l-8.375 0q0.09375 2.09375 1.203125 3.203125q1.125 1.09375 3.09375 1.09375q0.84375 0 1.703125 -0.203125q0.859375 -0.21875 1.671875 -0.78125q0.578125 -0.375 0.96875 -0.140625q0.390625 0.21875 0.40625 0.6875q0.015625 0.46875 -0.515625 0.828125q-0.84375 0.59375 -2.0 0.9375q-1.140625 0.328125 -2.234375 0.328125zm-0.328125 -11.25q-1.75 0 -2.765625 1.09375q-1.0 1.078125 -1.1875 2.859375l7.46875 0q-0.0625 -1.875 -0.96875 -2.90625q-0.90625 -1.046875 -2.546875 -1.046875zm13.193329 11.25q-2.171875 0 -3.265625 -1.15625q-1.09375 -1.15625 -1.09375 -3.328125l0 -6.46875l-1.6875 0q-0.890625 0 -0.890625 -0.8125q0 -0.78125 0.890625 -0.78125l1.6875 0l0 -2.90625q0 -1.046875 1.046875 -1.046875q1.015625 0 1.015625 1.046875l0 2.90625l3.1875 0q0.890625 0 0.890625 0.78125q0 0.8125 -0.890625 0.8125l-3.1875 0l0 6.265625q0 1.4375 0.609375 2.1875q0.609375 0.75 1.96875 0.75q0.484375 0 0.8125 -0.09375q0.328125 -0.109375 0.578125 -0.109375q0.234375 -0.03125 0.375 0.15625q0.15625 0.171875 0.15625 0.59375q0 0.3125 -0.109375 0.5625q-0.109375 0.25 -0.390625 0.359375q-0.3125 0.09375 -0.8125 0.1875q-0.484375 0.09375 -0.890625 0.09375zm11.758896 -0.0625q-0.96875 0 -0.96875 -1.0l0 -16.1875q0 -1.015625 0.96875 -1.015625q0.40625 0 0.640625 0.171875q0.25 0.15625 0.453125 0.53125l6.546875 12.359375l6.546875 -12.359375q0.203125 -0.375 0.421875 -0.53125q0.234375 -0.171875 0.65625 -0.171875q0.9375 0 0.9375 1.015625l0 16.1875q0 1.0 -0.953125 1.0q-0.96875 0 -0.96875 -1.0l0 -13.125l-5.71875 10.765625q-0.1875 0.328125 -0.375 0.46875q-0.1875 0.140625 -0.546875 0.140625q-0.34375 0 -0.546875 -0.15625q-0.203125 -0.15625 -0.359375 -0.453125l-5.796875 -10.75l0 13.109375q0 1.0 -0.9375 1.0zm24.233704 0.0625q-1.265625 0 -2.265625 -0.5q-1.0 -0.5 -1.578125 -1.359375q-0.578125 -0.859375 -0.578125 -1.921875q0 -1.34375 0.6875 -2.125q0.703125 -0.78125 2.3125 -1.125q1.609375 -0.34375 4.390625 -0.34375l0.8125 0l0 -0.78125q0 -1.578125 -0.65625 -2.265625q-0.640625 -0.703125 -2.0625 -0.703125q-0.875 0 -1.78125 0.234375q-0.90625 0.21875 -1.859375 0.734375q-0.4375 0.21875 -0.734375 0.078125q-0.28125 -0.140625 -0.40625 -0.453125q-0.109375 -0.3125 0 -0.65625q0.125 -0.34375 0.5 -0.515625q1.09375 -0.5625 2.1875 -0.8125q1.109375 -0.25 2.09375 -0.25q2.390625 0 3.53125 1.171875q1.15625 1.15625 1.15625 3.609375l0 6.859375q0 1.0625 -0.9375 1.0625q-0.984375 0 -0.984375 -1.0625l0 -1.234375q-0.484375 1.09375 -1.484375 1.734375q-1.0 0.625 -2.34375 0.625zm0.328125 -1.546875q1.53125 0 2.484375 -1.046875q0.96875 -1.0625 0.96875 -2.6875l0 -0.75l-0.796875 0q-2.046875 0 -3.234375 0.1875q-1.171875 0.1875 -1.640625 0.65625q-0.46875 0.46875 -0.46875 1.28125q0 1.03125 0.71875 1.703125q0.734375 0.65625 1.96875 0.65625zm10.23642 6.046875q-1.015625 0 -1.015625 -1.03125l0 -15.15625q0 -1.03125 0.984375 -1.03125q1.046875 0 1.046875 1.03125l0 1.328125q0.53125 -1.125 1.640625 -1.765625q1.125 -0.640625 2.5625 -0.640625q1.640625 0 2.875 0.765625q1.234375 0.765625 1.890625 2.203125q0.671875 1.4375 0.671875 3.40625q0 1.953125 -0.671875 3.390625q-0.65625 1.421875 -1.890625 2.21875q-1.234375 0.78125 -2.875 0.78125q-1.421875 0 -2.53125 -0.625q-1.109375 -0.640625 -1.65625 -1.765625l0 5.859375q0 1.03125 -1.03125 1.03125zm4.78125 -6.15625q1.734375 0 2.765625 -1.21875q1.046875 -1.234375 1.046875 -3.515625q0 -2.296875 -1.046875 -3.515625q-1.03125 -1.21875 -2.765625 -1.21875q-1.71875 0 -2.765625 1.21875q-1.03125 1.21875 -1.03125 3.515625q0 2.28125 1.03125 3.515625q1.046875 1.21875 2.765625 1.21875z" fill-rule="nonzero" />
        <path fill="#cfe2f3" d="m135.43309 277.26642l238.04726 0l0 31.590546l-238.04726 0z" fill-rule="evenodd" />
        <path stroke="#000000" stroke-width="2.0" stroke-linejoin="round" stroke-linecap="butt" d="m135.43309 277.26642l238.04726 0l0 31.590546l-238.04726 0z" fill-rule="evenodd" />
        <path fill="#000000" fill-opacity="0.0" d="m291.70078 277.3294l0 31.46457" fill-rule="evenodd" />
        <path stroke="#000000" stroke-width="2.0" stroke-linejoin="round" stroke-linecap="butt" d="m291.70078 277.3294l0 31.46457" fill-rule="evenodd" />
        <path fill="#000000" fill-opacity="0.0" d="m213.07611 277.49738l0 31.46457" fill-rule="evenodd" />
        <path stroke="#000000" stroke-width="2.0" stroke-linejoin="round" stroke-linecap="butt" d="m213.07611 277.49738l0 31.46457" fill-rule="evenodd" />
        <path fill="#000000" fill-opacity="0.0" d="m347.445 297.35785c0 13.062714 113.79526 26.940369 227.59052 26.125397c113.79529 -0.8149414 227.59058 -16.32254 227.59058 -32.64508" fill-rule="evenodd" />
        <path stroke="#000000" stroke-width="2.0" stroke-linejoin="round" stroke-linecap="butt" d="m347.445 297.35785c0 13.062683 113.79529 26.940369 227.59058 26.125427c56.897583 -0.40750122 113.79523 -4.4881287 156.46844 -10.507233c21.336609 -3.0095215 39.117126 -6.5036926 51.563477 -10.265625c3.1116333 -0.9404907 5.8897705 -1.8977051 8.306824 -2.8682556c0.60424805 -0.24264526 1.1859741 -0.48614502 1.7446289 -0.7303772l0.5769043 -0.25793457" fill-rule="evenodd" />
        <path fill="#000000" stroke="#000000" stroke-width="2.0" stroke-linecap="butt" d="m795.90247 301.31223l4.5477295 -8.521057l-8.960999 3.6042786z" fill-rule="evenodd" />
        <path fill="#000000" fill-opacity="0.0" d="m137.13219 188.49213l170.26772 0l0 37.07086l-170.26772 0z" fill-rule="evenodd" />
        <path fill="#000000" d="m150.96674 216.31943q-1.015625 0 -1.015625 -1.0625l0 -16.109375q0 -1.03125 1.015625 -1.03125q1.03125 0 1.03125 1.03125l0 6.71875q0.609375 -1.109375 1.703125 -1.671875q1.109375 -0.578125 2.484375 -0.578125q4.375 0 4.375 4.859375l0 6.78125q0 1.0625 -1.0 1.0625q-1.046875 0 -1.046875 -1.0625l0 -6.65625q0 -1.71875 -0.671875 -2.515625q-0.671875 -0.796875 -2.140625 -0.796875q-1.6875 0 -2.703125 1.046875q-1.0 1.046875 -1.0 2.796875l0 6.125q0 1.0625 -1.03125 1.0625zm17.245773 0.0625q-1.265625 0 -2.265625 -0.5q-1.0 -0.5 -1.578125 -1.359375q-0.578125 -0.859375 -0.578125 -1.921875q0 -1.34375 0.6875 -2.125q0.703125 -0.78125 2.3125 -1.125q1.609375 -0.34375 4.390625 -0.34375l0.8125 0l0 -0.78125q0 -1.578125 -0.65625 -2.265625q-0.640625 -0.703125 -2.0625 -0.703125q-0.875 0 -1.78125 0.234375q-0.90625 0.21875 -1.859375 0.734375q-0.4375 0.21875 -0.734375 0.078125q-0.28125 -0.140625 -0.40625 -0.453125q-0.109375 -0.3125 0 -0.65625q0.125 -0.34375 0.5 -0.515625q1.09375 -0.5625 2.1875 -0.8125q1.109375 -0.25 2.09375 -0.25q2.390625 0 3.53125 1.171875q1.15625 1.15625 1.15625 3.609375l0 6.859375q0 1.0625 -0.9375 1.0625q-0.984375 0 -0.984375 -1.0625l0 -1.234375q-0.484375 1.09375 -1.484375 1.734375q-1.0 0.625 -2.34375 0.625zm0.328125 -1.546875q1.53125 0 2.484375 -1.046875q0.96875 -1.0625 0.96875 -2.6875l0 -0.75l-0.796875 0q-2.046875 0 -3.234375 0.1875q-1.171875 0.1875 -1.640625 0.65625q-0.46875 0.46875 -0.46875 1.28125q0 1.03125 0.71875 1.703125q0.734375 0.65625 1.96875 0.65625zm13.377045 1.546875q-1.140625 0 -2.296875 -0.296875q-1.140625 -0.296875 -2.140625 -0.953125q-0.453125 -0.28125 -0.4375 -0.71875q0.015625 -0.4375 0.34375 -0.6875q0.328125 -0.265625 0.828125 -0.015625q1.0 0.609375 1.921875 0.859375q0.921875 0.234375 1.828125 0.234375q1.453125 0 2.1875 -0.53125q0.734375 -0.53125 0.734375 -1.4375q0 -0.71875 -0.484375 -1.125q-0.484375 -0.421875 -1.515625 -0.65625l-2.3125 -0.5q-3.140625 -0.6875 -3.140625 -3.25q0 -1.671875 1.328125 -2.671875q1.328125 -1.015625 3.484375 -1.015625q1.09375 0 2.09375 0.296875q1.015625 0.28125 1.828125 0.90625q0.4375 0.3125 0.375 0.75q-0.046875 0.421875 -0.390625 0.671875q-0.328125 0.234375 -0.8125 -0.078125q-0.765625 -0.5 -1.546875 -0.734375q-0.78125 -0.25 -1.546875 -0.25q-1.421875 0 -2.15625 0.5625q-0.734375 0.546875 -0.734375 1.46875q0 1.421875 1.875 1.8125l2.3125 0.484375q1.625 0.359375 2.453125 1.140625q0.84375 0.765625 0.84375 2.078125q0 1.703125 -1.34375 2.6875q-1.34375 0.96875 -3.578125 0.96875zm9.042221 -0.0625q-1.015625 0 -1.015625 -1.0625l0 -16.109375q0 -1.03125 1.015625 -1.03125q1.03125 0 1.03125 1.03125l0 6.71875q0.609375 -1.109375 1.703125 -1.671875q1.109375 -0.578125 2.484375 -0.578125q4.375 0 4.375 4.859375l0 6.78125q0 1.0625 -1.0 1.0625q-1.046875 0 -1.046875 -1.0625l0 -6.65625q0 -1.71875 -0.671875 -2.515625q-0.671875 -0.796875 -2.140625 -0.796875q-1.6875 0 -2.703125 1.046875q-1.0 1.046875 -1.0 2.796875l0 6.125q0 1.0625 -1.03125 1.0625zm26.139816 0.0625q-1.4375 0 -2.5625 -0.640625q-1.109375 -0.65625 -1.640625 -1.796875l0 1.3125q0 1.0625 -1.015625 1.0625q-1.015625 0 -1.015625 -1.0625l0 -16.109375q0 -1.03125 1.015625 -1.03125q1.03125 0 1.03125 1.03125l0 6.8125q0.546875 -1.078125 1.65625 -1.703125q1.109375 -0.640625 2.53125 -0.640625q1.640625 0 2.875 0.765625q1.234375 0.765625 1.890625 2.203125q0.671875 1.4375 0.671875 3.40625q0 1.953125 -0.671875 3.390625q-0.65625 1.421875 -1.890625 2.21875q-1.234375 0.78125 -2.875 0.78125zm-0.4375 -1.65625q1.734375 0 2.765625 -1.21875q1.046875 -1.234375 1.046875 -3.515625q0 -2.296875 -1.046875 -3.515625q-1.03125 -1.21875 -2.765625 -1.21875q-1.71875 0 -2.765625 1.21875q-1.03125 1.21875 -1.03125 3.515625q0 2.28125 1.03125 3.515625q1.046875 1.21875 2.765625 1.21875zm13.328812 1.65625q-4.4375 0 -4.4375 -4.890625l0 -6.796875q0 -1.03125 1.015625 -1.03125q1.046875 0 1.046875 1.03125l0 6.765625q0 1.640625 0.671875 2.4375q0.671875 0.78125 2.109375 0.78125q1.5625 0 2.546875 -1.046875q1.0 -1.0625 1.0 -2.796875l0 -6.140625q0 -1.03125 1.03125 -1.03125q1.015625 0 1.015625 1.03125l0 10.5625q0 1.0625 -0.984375 1.0625q-1.015625 0 -1.015625 -1.0625l0 -1.1875q-0.578125 1.109375 -1.640625 1.71875q-1.046875 0.59375 -2.359375 0.59375zm15.068466 0q-1.84375 0 -3.1875 -0.796875q-1.34375 -0.8125 -2.0625 -2.265625q-0.71875 -1.453125 -0.71875 -3.40625q0 -2.9375 1.59375 -4.609375q1.59375 -1.6875 4.375 -1.6875q0.90625 0 1.890625 0.296875q1.0 0.28125 1.8125 0.9375q0.421875 0.296875 0.359375 0.765625q-0.0625 0.453125 -0.4375 0.6875q-0.359375 0.21875 -0.84375 -0.109375q-0.671875 -0.5 -1.34375 -0.703125q-0.671875 -0.203125 -1.3125 -0.203125q-1.921875 0 -2.96875 1.203125q-1.03125 1.203125 -1.03125 3.453125q0 2.203125 1.03125 3.484375q1.046875 1.28125 2.96875 1.28125q0.640625 0 1.3125 -0.203125q0.671875 -0.203125 1.34375 -0.71875q0.484375 -0.328125 0.84375 -0.078125q0.359375 0.234375 0.390625 0.6875q0.03125 0.453125 -0.359375 0.734375q-0.8125 0.65625 -1.78125 0.953125q-0.96875 0.296875 -1.875 0.296875zm7.523819 -0.0625q-1.015625 0 -1.015625 -1.0625l0 -16.109375q0 -1.03125 1.015625 -1.03125q1.03125 0 1.03125 1.03125l0 10.15625l0.0625 0l5.1875 -4.953125q0.328125 -0.328125 0.609375 -0.5q0.28125 -0.1875 0.734375 -0.1875q0.609375 0 0.796875 0.46875q0.1875 0.46875 -0.265625 0.953125l-4.9375 4.6875l5.421875 5.078125q0.53125 0.515625 0.28125 1.0q-0.234375 0.46875 -0.796875 0.46875q-0.453125 0 -0.75 -0.1875q-0.28125 -0.1875 -0.65625 -0.5625l-5.625 -5.203125l-0.0625 0l0 4.890625q0 1.0625 -1.03125 1.0625zm16.865997 0.0625q-2.90625 0 -4.609375 -1.703125q-1.6875 -1.71875 -1.6875 -4.65625q0 -1.90625 0.75 -3.359375q0.765625 -1.453125 2.09375 -2.25q1.328125 -0.796875 3.078125 -0.796875q2.5 0 3.921875 1.609375q1.421875 1.59375 1.421875 4.40625q0 0.796875 -0.890625 0.796875l-8.375 0q0.09375 2.09375 1.203125 3.203125q1.125 1.09375 3.09375 1.09375q0.84375 0 1.703125 -0.203125q0.859375 -0.21875 1.671875 -0.78125q0.578125 -0.375 0.96875 -0.140625q0.390625 0.21875 0.40625 0.6875q0.015625 0.46875 -0.515625 0.828125q-0.84375 0.59375 -2.0 0.9375q-1.140625 0.328125 -2.234375 0.328125zm-0.328125 -11.25q-1.75 0 -2.765625 1.09375q-1.0 1.078125 -1.1875 2.859375l7.46875 0q-0.0625 -1.875 -0.96875 -2.90625q-0.90625 -1.046875 -2.546875 -1.046875zm13.193329 11.25q-2.171875 0 -3.265625 -1.15625q-1.09375 -1.15625 -1.09375 -3.328125l0 -6.46875l-1.6875 0q-0.890625 0 -0.890625 -0.8125q0 -0.78125 0.890625 -0.78125l1.6875 0l0 -2.90625q0 -1.046875 1.046875 -1.046875q1.015625 0 1.015625 1.046875l0 2.90625l3.1875 0q0.890625 0 0.890625 0.78125q0 0.8125 -0.890625 0.8125l-3.1875 0l0 6.265625q0 1.4375 0.609375 2.1875q0.609375 0.75 1.96875 0.75q0.484375 0 0.8125 -0.09375q0.328125 -0.109375 0.578125 -0.109375q0.234375 -0.03125 0.375 0.15625q0.15625 0.171875 0.15625 0.59375q0 0.3125 -0.109375 0.5625q-0.109375 0.25 -0.390625 0.359375q-0.3125 0.09375 -0.8125 0.1875q-0.484375 0.09375 -0.890625 0.09375zm8.083588 0q-1.140625 0 -2.296875 -0.296875q-1.140625 -0.296875 -2.140625 -0.953125q-0.453125 -0.28125 -0.4375 -0.71875q0.015625 -0.4375 0.34375 -0.6875q0.328125 -0.265625 0.828125 -0.015625q1.0 0.609375 1.921875 0.859375q0.921875 0.234375 1.828125 0.234375q1.453125 0 2.1875 -0.53125q0.734375 -0.53125 0.734375 -1.4375q0 -0.71875 -0.484375 -1.125q-0.484375 -0.421875 -1.515625 -0.65625l-2.3125 -0.5q-3.140625 -0.6875 -3.140625 -3.25q0 -1.671875 1.328125 -2.671875q1.328125 -1.015625 3.484375 -1.015625q1.09375 0 2.09375 0.296875q1.015625 0.28125 1.828125 0.90625q0.4375 0.3125 0.375 0.75q-0.046875 0.421875 -0.390625 0.671875q-0.328125 0.234375 -0.8125 -0.078125q-0.765625 -0.5 -1.546875 -0.734375q-0.78125 -0.25 -1.546875 -0.25q-1.421875 0 -2.15625 0.5625q-0.734375 0.546875 -0.734375 1.46875q0 1.421875 1.875 1.8125l2.3125 0.484375q1.625 0.359375 2.453125 1.140625q0.84375 0.765625 0.84375 2.078125q0 1.703125 -1.34375 2.6875q-1.34375 0.96875 -3.578125 0.96875z" fill-rule="nonzero" />
        <path fill="#000000" fill-opacity="0.0" d="m267.25024 290.79825c0 -57.132095 87.02362 -103.10672 174.04724 -114.264206c87.02362 -11.157471 174.04724 12.502182 174.04724 25.004364" fill-rule="evenodd" />
        <path stroke="#000000" stroke-width="2.0" stroke-linejoin="round" stroke-linecap="butt" d="m267.2502 290.79825c0 -57.132095 87.02365 -103.106735 174.04727 -114.264206c43.51181 -5.5787506 87.02362 -2.453186 119.65747 3.6298218c16.316956 3.0414886 29.914368 6.822357 39.432617 10.624237c1.1897583 0.47521973 2.315796 0.95080566 3.3754272 1.4252777c0.52978516 0.23724365 1.0430908 0.4742279 1.5393066 0.7107544c0.24816895 0.118270874 0.49212646 0.23641968 0.7317505 0.3544464l0.41375732 0.20722961" fill-rule="evenodd" />
        <path fill="#000000" stroke="#000000" stroke-width="2.0" stroke-linecap="butt" d="m604.231 195.93504l8.945984 3.6413422l-4.512451 -8.53981z" fill-rule="evenodd" />
        <path fill="#000000" d="m340.8854 245.5856l0 0c0 -2.1221619 1.7203369 -3.842514 3.8425293 -3.842514l0 0c1.0190735 0 1.99646 0.40483093 2.7170715 1.1254425c0.7206116 0.7206116 1.1254272 1.6979675 1.1254272 2.7170715l0 0c0 2.1221619 -1.7203369 3.842514 -3.8424988 3.842514l0 0c-2.1221924 0 -3.8425293 -1.7203522 -3.8425293 -3.842514z" fill-rule="evenodd" />
        <path stroke="#000000" stroke-width="1.0" stroke-linejoin="round" stroke-linecap="butt" d="m340.8854 245.5856l0 0c0 -2.1221619 1.7203369 -3.842514 3.8425293 -3.842514l0 0c1.0190735 0 1.99646 0.40483093 2.7170715 1.1254425c0.7206116 0.7206116 1.1254272 1.6979675 1.1254272 2.7170715l0 0c0 2.1221619 -1.7203369 3.842514 -3.8424988 3.842514l0 0c-2.1221924 0 -3.8425293 -1.7203522 -3.8425293 -3.842514z" fill-rule="evenodd" />
        <path fill="#000000" fill-opacity="0.0" d="m211.56168 281.3294l79.18109 0l0 22.771637l-79.18109 0z" fill-rule="evenodd" />
        <path fill="#000000" d="m223.6688 304.0046q-1.203125 -2.203125 -1.765625 -4.515625q-0.546875 -2.3125 -0.546875 -4.703125q0 -2.390625 0.546875 -4.6875q0.5625 -2.3125 1.765625 -4.53125q0.203125 -0.359375 0.578125 -0.359375q0.375 -0.015625 0.609375 0.28125q0.25 0.28125 0.046875 0.8125q-0.859375 2.125 -1.28125 4.21875q-0.421875 2.09375 -0.421875 4.265625q0 2.171875 0.4375 4.265625q0.4375 2.09375 1.265625 4.21875q0.203125 0.53125 -0.046875 0.8125q-0.234375 0.296875 -0.609375 0.28125q-0.375 -0.015625 -0.578125 -0.359375zm5.5891724 -3.609375q-0.8125 0 -0.8125 -0.765625q0 -0.734375 0.8125 -0.734375l2.765625 0l0 -11.484375l-2.171875 1.453125q-0.34375 0.203125 -0.640625 0.109375q-0.28125 -0.09375 -0.4375 -0.34375q-0.140625 -0.265625 -0.09375 -0.5625q0.0625 -0.296875 0.40625 -0.53125l2.9375 -1.9375q0.28125 -0.171875 0.53125 -0.28125q0.265625 -0.109375 0.515625 -0.109375q0.296875 0 0.5 0.1875q0.203125 0.171875 0.203125 0.5625l0 12.9375l2.5625 0q0.8125 0 0.8125 0.734375q0 0.765625 -0.8125 0.765625l-7.078125 0zm13.062546 0.15625q-0.46875 0 -0.6875 -0.328125q-0.21875 -0.34375 0.03125 -0.828125l6.46875 -12.515625l-7.296875 0q-0.8125 0 -0.8125 -0.78125q0 -0.734375 0.8125 -0.734375l8.46875 0q0.375 0 0.609375 0.203125q0.234375 0.203125 0.234375 0.53125q0 0.328125 -0.078125 0.5625q-0.0625 0.21875 -0.1875 0.46875l-6.578125 12.8125q-0.296875 0.609375 -0.984375 0.609375zm11.859421 1.875q-0.296875 0.359375 -0.59375 0.328125q-0.296875 -0.03125 -0.40625 -0.3125q-0.109375 -0.28125 0.171875 -0.65625q0.25 -0.328125 0.375 -0.671875q0.140625 -0.328125 0.203125 -0.640625q-0.515625 -0.03125 -0.8125 -0.34375q-0.296875 -0.328125 -0.296875 -0.828125q0 -0.5 0.296875 -0.828125q0.3125 -0.34375 0.828125 -0.34375q0.5625 0 0.875 0.375q0.328125 0.375 0.328125 1.078125q0 0.65625 -0.21875 1.40625q-0.21875 0.75 -0.75 1.4375zm21.02713 1.578125q-0.203125 0.34375 -0.59375 0.359375q-0.375 0.015625 -0.625 -0.28125q-0.25 -0.28125 -0.03125 -0.8125q1.703125 -4.203125 1.703125 -8.484375q0 -2.171875 -0.453125 -4.25q-0.4375 -2.078125 -1.25 -4.234375q-0.1875 -0.53125 0.046875 -0.8125q0.25 -0.296875 0.625 -0.28125q0.375 0 0.578125 0.359375q1.171875 2.203125 1.71875 4.515625q0.5625 2.3125 0.5625 4.703125q0 2.390625 -0.5625 4.71875q-0.546875 2.3125 -1.71875 4.5z" fill-rule="nonzero" />
        <path fill="#000000" fill-opacity="0.0" d="m290.74277 281.28088l79.18112 0l0 22.771667l-79.18112 0z" fill-rule="evenodd" />
        <path fill="#000000" d="m302.84988 303.9561q-1.203125 -2.203125 -1.765625 -4.515625q-0.546875 -2.3125 -0.546875 -4.703125q0 -2.390625 0.546875 -4.6875q0.5625 -2.3125 1.765625 -4.53125q0.203125 -0.359375 0.578125 -0.359375q0.375 -0.015625 0.609375 0.28125q0.25 0.28125 0.046875 0.8125q-0.859375 2.125 -1.28125 4.21875q-0.421875 2.09375 -0.421875 4.265625q0 2.171875 0.4375 4.265625q0.4375 2.09375 1.265625 4.21875q0.203125 0.53125 -0.046875 0.8125q-0.234375 0.296875 -0.609375 0.28125q-0.375 -0.015625 -0.578125 -0.359375zm5.5891724 -3.609375q-0.8125 0 -0.8125 -0.765625q0 -0.734375 0.8125 -0.734375l2.765625 0l0 -11.484375l-2.171875 1.453125q-0.34375 0.203125 -0.640625 0.109375q-0.28125 -0.09375 -0.4375 -0.34375q-0.140625 -0.265625 -0.09375 -0.5625q0.0625 -0.296875 0.40625 -0.53125l2.9375 -1.9375q0.28125 -0.171875 0.53125 -0.28125q0.265625 -0.109375 0.515625 -0.109375q0.296875 0 0.5 0.1875q0.203125 0.171875 0.203125 0.5625l0 12.9375l2.5625 0q0.8125 0 0.8125 0.734375q0 0.765625 -0.8125 0.765625l-7.078125 0zm15.718811 0.1875q-1.265625 0 -2.5 -0.359375q-1.234375 -0.359375 -2.15625 -1.0625q-0.34375 -0.265625 -0.40625 -0.5625q-0.046875 -0.3125 0.09375 -0.5625q0.140625 -0.265625 0.4375 -0.328125q0.296875 -0.078125 0.671875 0.15625q0.9375 0.609375 1.875 0.890625q0.9375 0.28125 1.9375 0.28125q1.625 0 2.484375 -0.71875q0.859375 -0.71875 0.859375 -2.109375q0 -1.3125 -0.875 -2.0q-0.875 -0.6875 -2.53125 -0.6875l-1.515625 0q-0.828125 0 -0.828125 -0.765625q0 -0.734375 0.828125 -0.734375l1.359375 0q1.453125 0 2.296875 -0.75q0.84375 -0.765625 0.84375 -2.09375q0 -1.171875 -0.78125 -1.8125q-0.78125 -0.640625 -2.203125 -0.640625q-0.984375 0 -1.828125 0.28125q-0.84375 0.28125 -1.671875 0.9375q-0.328125 0.234375 -0.609375 0.171875q-0.28125 -0.0625 -0.453125 -0.3125q-0.15625 -0.25 -0.109375 -0.5625q0.0625 -0.328125 0.40625 -0.578125q0.828125 -0.703125 1.96875 -1.09375q1.15625 -0.40625 2.40625 -0.40625q2.171875 0 3.390625 1.03125q1.234375 1.015625 1.234375 2.828125q0 1.265625 -0.640625 2.21875q-0.640625 0.9375 -1.765625 1.375q1.34375 0.359375 2.078125 1.328125q0.75 0.96875 0.75 2.40625q0 1.9375 -1.359375 3.09375q-1.34375 1.140625 -3.6875 1.140625zm9.2031555 1.84375q-0.296875 0.359375 -0.59375 0.328125q-0.296875 -0.03125 -0.40625 -0.3125q-0.109375 -0.28125 0.171875 -0.65625q0.25 -0.328125 0.375 -0.671875q0.140625 -0.328125 0.203125 -0.640625q-0.515625 -0.03125 -0.8125 -0.34375q-0.296875 -0.328125 -0.296875 -0.828125q0 -0.5 0.296875 -0.828125q0.3125 -0.34375 0.828125 -0.34375q0.5625 0 0.875 0.375q0.328125 0.375 0.328125 1.078125q0 0.65625 -0.21875 1.40625q-0.21875 0.75 -0.75 1.4375zm21.02716 1.578125q-0.203125 0.34375 -0.59375 0.359375q-0.375 0.015625 -0.625 -0.28125q-0.25 -0.28125 -0.03125 -0.8125q1.703125 -4.203125 1.703125 -8.484375q0 -2.171875 -0.453125 -4.25q-0.4375 -2.078125 -1.25 -4.234375q-0.1875 -0.53125 0.046875 -0.8125q0.25 -0.296875 0.625 -0.28125q0.375 0 0.578125 0.359375q1.171875 2.203125 1.71875 4.515625q0.5625 2.3125 0.5625 4.703125q0 2.390625 -0.5625 4.71875q-0.546875 2.3125 -1.71875 4.5z" fill-rule="nonzero" />
        <path fill="#000000" d="m340.8854 294.64078l0 0c0 -2.1221619 1.7203369 -3.8425293 3.8425293 -3.8425293l0 0c1.0190735 0 1.99646 0.4048462 2.7170715 1.1254578c0.7206116 0.7206116 1.1254272 1.6979675 1.1254272 2.7170715l0 0c0 2.1221619 -1.7203369 3.8424988 -3.8424988 3.8424988l0 0c-2.1221924 0 -3.8425293 -1.7203369 -3.8425293 -3.8424988z" fill-rule="evenodd" />
        <path stroke="#000000" stroke-width="1.0" stroke-linejoin="round" stroke-linecap="butt" d="m340.8854 294.64078l0 0c0 -2.1221619 1.7203369 -3.8425293 3.8425293 -3.8425293l0 0c1.0190735 0 1.99646 0.4048462 2.7170715 1.1254578c0.7206116 0.7206116 1.1254272 1.6979675 1.1254272 2.7170715l0 0c0 2.1221619 -1.7203369 3.8424988 -3.8424988 3.8424988l0 0c-2.1221924 0 -3.8425293 -1.7203369 -3.8425293 -3.8424988z" fill-rule="evenodd" />
        <path fill="#000000" d="m263.4077 294.64078l0 0c0 -2.1221619 1.7203369 -3.8425293 3.8425293 -3.8425293l0 0c1.0190735 0 1.99646 0.4048462 2.7170715 1.1254578c0.7206116 0.7206116 1.1254272 1.6979675 1.1254272 2.7170715l0 0c0 2.1221619 -1.7203369 3.8424988 -3.8424988 3.8424988l0 0c-2.1221924 0 -3.8425293 -1.7203369 -3.8425293 -3.8424988z" fill-rule="evenodd" />
        <path stroke="#000000" stroke-width="1.0" stroke-linejoin="round" stroke-linecap="butt" d="m263.4077 294.64078l0 0c0 -2.1221619 1.7203369 -3.8425293 3.8425293 -3.8425293l0 0c1.0190735 0 1.99646 0.4048462 2.7170715 1.1254578c0.7206116 0.7206116 1.1254272 1.6979675 1.1254272 2.7170715l0 0c0 2.1221619 -1.7203369 3.8424988 -3.8424988 3.8424988l0 0c-2.1221924 0 -3.8425293 -1.7203369 -3.8425293 -3.8424988z" fill-rule="evenodd" />
        <path fill="#000000" fill-opacity="0.0" d="m348.57043 364.709c164.53546 0 329.07086 5.149597 329.07086 10.299194" fill-rule="evenodd" />
        <path stroke="#000000" stroke-width="2.0" stroke-linejoin="round" stroke-linecap="butt" d="m348.57047 364.70898c82.2677 0 164.53543 1.2874146 226.23624 3.2185059c30.850342 0.96554565 56.55902 2.092041 74.555115 3.2989807c4.4990234 0.3017578 8.515991 0.60849 12.010742 0.91903687c0.87371826 0.07763672 1.7147827 0.15551758 2.522522 0.23358154c0.40393066 0.0390625 0.7994995 0.078125 1.1866455 0.11730957l0.8078613 0.08355713" fill-rule="evenodd" />
        <path fill="#000000" stroke="#000000" stroke-width="2.0" stroke-linecap="butt" d="m665.2211 375.8151l9.556885 -1.398529l-8.219971 -5.0717163z" fill-rule="evenodd" />
        <path fill="#000000" fill-opacity="0.0" d="m422.84253 120.62336l0 297.95276" fill-rule="evenodd" />
        <path stroke="#000000" stroke-width="3.0" stroke-linejoin="round" stroke-linecap="butt" stroke-dasharray="12.0,9.0" d="m422.84253 120.62336l0 297.95276" fill-rule="evenodd" />
    </g>
</svg>